<?xml version="1.0" encoding="UTF-8"?>
<svg id="Layer_1" xmlns="http://www.w3.org/2000/svg" version="1.1" viewBox="0 0 501.7 466">
  <!-- Generator: Adobe Illustrator 29.2.1, SVG Export Plug-In . SVG Version: 2.1.0 Build 116)  -->
  <defs>
    <style>
      .st0 {
        fill: #1ae5be;
      }

      .st1 {
        fill: #0635c9;
      }
    </style>
  </defs>
  <path class="st0" d="M470.9,392.1v-252.9c.1-20.4-16.3-37-36.7-37.2h-30.3v12h29.8c13.8,0,25,10.9,25.2,24.6v252.3h-29v-242c0-3.3-2.8-6-6.1-6h-19.9v12h14v236h-109.5c-2,0-3.9,1.1-5,2.8l-10.8,16.2h-83.4l-10.8-16.2c-1.1-1.7-2.9-2.7-5-2.8h-109.5v-236h13v-12h-18.9c-3.3,0-6.1,2.6-6.1,6v242h-29v-251.8c0-13.8,10.9-25,24.7-25.2h30.3v-12h-29.8c-20.4,0-37.1,16.3-37.2,36.7v253.3c-7.6,1.2-14.5,4.9-19.9,10.4-7,7.1-11,16.6-11,26.6,0,20.5,16.6,37.1,37,37.1h427.5c20.6,0,37.2-16.7,37.2-37.3s-13-33.6-30.8-36.7h0ZM482.5,446.7c-4.8,4.7-11.3,7.4-18,7.3H37.3c-13.9.1-25.3-11-25.4-24.9v-.3c0-14.1,11.3-25.6,25.4-25.8h152.9l10.8,16.2c1.1,1.7,3,2.7,5,2.8h89.8c2,0,3.9-1.1,5-2.8l10.8-16.2h152.9c14.2.1,25.5,11.7,25.4,25.9,0,6.7-2.7,13.1-7.4,17.8h0Z"/>
  <path class="st0" d="M127.9,370h52.7c3.3,0,6-2.7,6-6s-2.7-6-6-6h-52.7c-3.3,0-6,2.7-6,6s2.7,6,6,6Z"/>
  <path class="st0" d="M213.7,358c-3.3,0-6,2.7-6,6s2.7,6,6,6h110.4c3.3,0,6-2.7,6-6s-2.7-6-6-6h-110.4Z"/>
  <path class="st0" d="M373.9,358h-24.1c-3.3,0-6,2.7-6,6s2.7,6,6,6h24.1c3.3,0,6-2.7,6-6s-2.7-6-6-6Z"/>
  <path class="st0" d="M127.9,335h18.3c3.3,0,6-2.7,6-6s-2.7-6-6-6h-18.3c-3.3,0-6,2.7-6,6s2.7,6,6,6Z"/>
  <path class="st0" d="M171.8,323c-3.3,0-6,2.7-6,6s2.7,6,6,6h13.3c3.3,0,6-2.7,6-6s-2.7-6-6-6h-13.3Z"/>
  <path class="st0" d="M373.9,323h-163c-3.3,0-6,2.7-6,6s2.7,6,6,6h163c3.3,0,6-2.7,6-6s-2.7-6-6-6Z"/>
  <path class="st0" d="M127.9,294h14.8c3.3,0,6-2.7,6-6s-2.7-6-6-6h-14.8c-3.3,0-6,2.7-6,6s2.7,6,6,6Z"/>
  <path class="st0" d="M168.7,294h46c3.3,0,6-2.7,6-6s-2.7-6-6-6h-46c-3.3,0-6,2.7-6,6s2.7,6,6,6Z"/>
  <path class="st0" d="M240.4,294h133.5c3.3,0,6-2.7,6-6s-2.7-6-6-6h-133.5c-3.3,0-6,2.7-6,6s2.7,6,6,6h0Z"/>
  <path class="st1" d="M176.9,89.5c3,0,6-1.4,6-4.2v-50.1c0-2.6-2.9-4.2-5.5-4.2s-2,.3-2.7,1l-9,6.9c-1.5,1-2.4,2.7-2.4,4.5s1.6,5,4.3,5,1.9-.4,2.6-1l.8-.8v38.7c0,2.4,2.5,4.2,6,4.2h-.1Z"/>
  <path class="st1" d="M241.9,49.8c0-12-6.7-18.6-19-18.6s-19,6.6-19,18.6v21.5c0,12,6.7,18.7,19,18.7s19-6.6,19-18.6v-21.5h0ZM229.9,71.3c0,5.2-2.3,7.9-7,7.9s-7-2.6-7-7.9v-21.5c0-5.3,2.2-7.9,7-7.9s7,2.6,7,7.9v21.5Z"/>
  <path class="st1" d="M272.9,89.5c3,0,6-1.4,6-4.2v-50.1c0-2.6-2.8-4.2-5.4-4.2s-1.9.3-2.6,1l-9,6.9c-1.5,1-2.4,2.7-2.4,4.5s1.6,5,4.2,5,1.8-.4,2.5-1l.7-.8v38.7c0,2.4,2.5,4.2,6,4.2h0Z"/>
  <path class="st1" d="M338.9,71.4v-21.5c0-12-6.7-18.6-19-18.6s-19,6.6-19,18.6v21.5c0,12,6.7,18.7,19,18.7s19-6.6,19-18.6h0ZM312.9,71.4v-21.5c0-5.3,2.2-7.9,7-7.9s7,2.6,7,7.9v21.5c0,5.2-2.3,7.9-7,7.9s-7-2.6-7-7.9Z"/>
  <path class="st1" d="M185.9,182.5c12.3,0,19-6.6,19-18.6v-21.5c0-12-6.7-18.6-19-18.6s-19,6.6-19,18.6v21.5c0,12,6.7,18.6,19,18.6ZM178.9,142.3c0-5.3,2.2-7.9,7-7.9s7,2.6,7,7.9v21.5c0,5.2-2.3,7.9-7,7.9s-7-2.6-7-7.9v-21.5Z"/>
  <path class="st1" d="M235.9,182c3,0,6-1.4,6-4.2v-50.1c0-2.6-3.1-4.2-5.7-4.2s-2,.3-2.8,1l-9.1,6.9c-1.5,1-2.4,2.7-2.4,4.5s1.6,5,4.2,5,2-.3,2.8-1l1-.8v38.7c0,2.4,2.5,4.2,6,4.2Z"/>
  <path class="st1" d="M281.9,182.5c12.3,0,19-6.6,19-18.6v-21.5c0-12-6.7-18.6-19-18.6s-19,6.6-19,18.6v21.5c0,12,6.7,18.6,19,18.6ZM274.9,142.3c0-5.3,2.2-7.9,7-7.9s7,2.6,7,7.9v21.5c0,5.2-2.3,7.9-7,7.9s-7-2.6-7-7.9v-21.5Z"/>
  <path class="st1" d="M322.4,140.9c1,0,1.9-.4,2.7-1l.9-.8v38.7c0,2.4,2.5,4.2,6,4.2s6-1.4,6-4.2v-50.1c0-2.6-2.9-4.2-5.6-4.2s-2,.3-2.7,1l-9,6.9c-1.5,1-2.4,2.7-2.4,4.5s1.6,5,4.2,5h-.1Z"/>
  <path class="st1" d="M133.9,36c0-3.3-2.7-6-6-6s-6,2.7-6,6v2c0,3.3,2.7,6,6,6s6-2.7,6-6v-2Z"/>
  <path class="st1" d="M127.9,52c-3.3,0-6,2.7-6,6v92c0,3.3,2.7,6,6,6s6-2.7,6-6V58c0-3.3-2.7-6-6-6Z"/>
  <path class="st1" d="M378.2,0H123.6c-17.5,0-31.7,14.2-31.7,31.7v150.2c0,17.7,14.4,32.1,32.2,32.2h58.3c23.9,0,27.6,18.4,29.4,37.4.2,2.7.5,5.5,1.2,8.2.6,2.6,2.6,4.5,5.2,4.9,1.3.2,2.6,0,3.8-.7,4.9-1.9,27.7-12.3,33.9-47,.3-1.7,1.8-2.8,3.5-2.8h54.6c3.3,0,6-2.7,6-6s-2.7-6-6-6h-54.6c-7.5,0-14,5.3-15.3,12.7-3.6,20.3-13.7,30.3-20.4,34.8-1.4-14.9-5.1-47.5-41.3-47.5h-58.5c-11,0-20-8.9-20-20V31.7c0-10.9,8.8-19.7,19.7-19.7h254.4c11,0,20,8.9,20,20h0v150.1c0,11-8.9,20-20,20h-22c-3.3,0-6,2.7-6,6s2.7,6,6,6h22c17.6,0,32-14.3,32-32h0V31.7c-.1-17.5-14.3-31.7-31.8-31.7h0Z"/>
</svg>