<?xml version="1.0" encoding="UTF-8"?>
<svg id="Layer_1" xmlns="http://www.w3.org/2000/svg" version="1.1" xmlns:xlink="http://www.w3.org/1999/xlink" viewBox="0 0 472 480">
  <!-- Generator: Adobe Illustrator 29.2.1, SVG Export Plug-In . SVG Version: 2.1.0 Build 116)  -->
  <defs>
    <style>
      .st0 {
        fill: url(#linear-gradient2);
      }

      .st1 {
        fill: url(#linear-gradient1);
      }

      .st2 {
        fill: url(#linear-gradient4);
      }

      .st3 {
        fill: url(#linear-gradient5);
      }

      .st4 {
        fill: url(#linear-gradient3);
      }

      .st5 {
        fill: url(#linear-gradient);
      }
    </style>
    <linearGradient id="linear-gradient" x1="183.9" y1="305.5" x2="472" y2="305.5" gradientUnits="userSpaceOnUse">
      <stop offset="0" stop-color="#e4e539"/>
      <stop offset="1" stop-color="#f26a21"/>
    </linearGradient>
    <linearGradient id="linear-gradient1" x1="0" y1="244" x2="392" y2="244" xlink:href="#linear-gradient"/>
    <linearGradient id="linear-gradient2" x1="45.4" y1="270.8" x2="307.8" y2="270.8" xlink:href="#linear-gradient"/>
    <linearGradient id="linear-gradient3" x1="56.2" y1="96" x2="336" y2="96" xlink:href="#linear-gradient"/>
    <linearGradient id="linear-gradient4" x1="64" y1="8" x2="288" y2="8" xlink:href="#linear-gradient"/>
    <linearGradient id="linear-gradient5" x1="304" y1="8" x2="320" y2="8" xlink:href="#linear-gradient"/>
  </defs>
  <g id="Cute">
    <path class="st5" d="M432,480c4.4,0,8-3.6,8-8v-80h0c0-1.2-.3-2.5-.8-3.6l-15.2-30.3v-126.1h23.5c13.4,0,24.8-11,24.5-24.4-.2-13.1-10.9-23.6-24-23.6h-26l-8.5-29.8c-4.5-15.5-19.8-25.3-35.8-22.8l-115.9,18.3c-11.8,1.8-20.8,11.4-21.8,23.3-.3,3.7.3,7.5,1.7,11h-17.8c-1.6,0-3.1.5-4.4,1.3l-22,14.7h-5.6c-4.4,0-8,3.6-8,8h0c0,4.4,3.6,8,8,8h5.6l22,14.7c1.3.9,2.9,1.3,4.4,1.3h36.7l19.4,19.4c1.3,16.5,11.8,30.8,27.2,36.9l12.7,5.1v64.7l-15.2,30.3c-.6,1.1-.8,2.3-.8,3.6h0v80c0,4.4,3.6,8,8,8h120.1ZM256,174.5c0-4.5,3.4-8.2,7.8-8.9l116.5-18.4c8-1.3,15.7,3.6,17.9,11.4l7.3,25.4h-42.1l4.7-4.7c3.1-3.1,3.1-8.2,0-11.3h0c-3.1-3.1-8.2-3.1-11.3,0h0l-16,16h-75.1c-5.3,0-9.5-4.2-9.6-9.4h0ZM324.9,384l8-16h78.1l8,16h-94.1ZM408,352h-72v-64c0-3.3-2-6.2-5-7.4l-16.9-6.8c-10.6-4.2-18.2-14.3-18-25.7,0-2.2-.8-4.2-2.3-5.7l-26.8-26.8c-1.6-1.5-2.6-3.5-2.8-5.7-.4-4.9,3.2-9.3,8.1-9.8h3.8c1.4,0,2.8.3,4,.9l59.3,29.6,17.4,17.4c3.1,3.1,8.2,3.1,11.3,0h0c3.1-3.1,3.1-8.2,0-11.3h0l-4.7-4.7h44.7v120h-.1ZM448,216h-8v-16h8c4.4,0,8,3.6,8,8s-3.6,8-8,8Z"/>
    <path class="st1" d="M16,48h360v56c0,4.4,3.6,8,8,8h0c4.4,0,8-3.6,8-8V40c0-4.4-3.6-8-8-8H8c-4.4,0-8,3.6-8,8v408c0,4.4,3.6,8,8,8h272c4.4,0,8-3.6,8-8h0c0-4.4-3.6-8-8-8H16V48Z"/>
    <path class="st0" d="M159.6,152.8c20.8-3.8,42.3-2.1,62.3,5.1,4,1.4,8.4-.5,10.1-4.3h0c1.8-4,0-8.7-4.1-10.5-.1,0-.3-.1-.4-.2-70.6-25.4-148.5,11.2-174,81.9-25.4,70.6,11.2,148.5,81.9,174,68.4,24.6,144.1-8.9,171.8-76.2,1.7-4.1-.3-8.8-4.4-10.4-.1,0-.3-.1-.4-.2h0c-4-1.4-8.4.7-10,4.6-14.2,34.5-43.7,60.4-79.8,70.2l53.5-53.5c3.1-3.1,3.1-8.2,0-11.3h0c-3.1-3.1-8.2-3.1-11.3,0l-68.8,68.8c-7.2.3-14.4,0-21.5-1.1l47-47c3.1-3.1,3.1-8.2,0-11.3h0c-3.1-3.1-8.2-3.1-11.3,0l-54.2,54.2c-5.6-1.7-11-3.8-16.3-6.3l47.2-47.2c3.1-3.1,3.1-8.2,0-11.3h0c-3.1-3.1-8.2-3.1-11.3,0l-50.3,50.3c-4.5-3-8.8-6.2-12.8-9.8l39.8-39.8c3.1-3.1,3.1-8.2,0-11.3h0c-3.1-3.1-8.2-3.1-11.3,0h0l-39.8,39.8c-3.6-4-6.8-8.3-9.8-12.8l46.3-46.3c3.1-3.1,3.1-8.2,0-11.3h0c-3.1-3.1-8.2-3.1-11.3,0l-43.2,43.2c-2.5-5.3-4.6-10.7-6.4-16.3l46.3-46.3c3.1-3.1,3.1-8.2,0-11.3h0c-3.1-3.1-8.2-3.1-11.3,0h0l-39.1,39.1c-.8-5.6-1.2-11.3-1.2-17v-4.5l44.9-44.9c3.1-3.1,3.1-8.2,0-11.3h0c-3.1-3.1-8.2-3.1-11.3,0h0l-29.6,29.6c12.1-44.7,48.8-78.5,94.3-86.9h0l-.2-.2Z"/>
    <path class="st4" d="M252,118c11.9,0,17.3-10.6,21.2-18.4,2-4,4.8-9.6,6.8-9.6s4.8,5.5,6.8,9.6c3.9,7.8,9.2,18.4,21.2,18.4s17.3-10.6,21.2-18.4c1.4-2.8,3.2-6.4,4.8-8.3,1.3-1.4,2-3.2,2-5.1v-.5c0-4.4-3.6-7.9-7.9-7.9s-4.4,1-5.9,2.7c-3.2,3.6-5.4,8.1-7.3,11.9-2,4-4.8,9.6-6.8,9.6s-4.8-5.5-6.8-9.6c-3.9-7.8-9.2-18.4-21.2-18.4s-17.3,10.6-21.2,18.4c-2,4-4.8,9.6-6.8,9.6s-4.8-5.5-6.8-9.6c-3.9-7.8-9.2-18.4-21.2-18.4s-17.3,10.6-21.2,18.4c-2,4-4.8,9.6-6.8,9.6s-4.8-5.5-6.8-9.6c-3.9-7.8-9.2-18.4-21.2-18.4s-17.3,10.6-21.2,18.4c-2,4-4.8,9.6-6.8,9.6s-4.8-5.5-6.8-9.6c-3.9-7.8-9.2-18.4-21.2-18.4s-17.3,10.6-21.2,18.4c-2,4-4.8,9.6-6.8,9.6s-4.8-5.5-6.8-9.6c-1.9-3.8-4.1-8.3-7.3-11.9-2.9-3.3-7.9-3.6-11.1-.7-1.7,1.5-2.7,3.6-2.7,5.9v.5c0,1.9.7,3.7,2,5.1,1.6,1.9,3.4,5.4,4.8,8.3,3.9,7.8,9.2,18.4,21.2,18.4s17.3-10.6,21.2-18.4c2-4,4.8-9.6,6.8-9.6s4.8,5.5,6.8,9.6c3.9,7.8,9.2,18.4,21.2,18.4s17.3-10.6,21.2-18.4c2-4,4.8-9.6,6.8-9.6s4.8,5.5,6.8,9.6c3.9,7.8,9.2,18.4,21.2,18.4s17.3-10.6,21.2-18.4c2-4,4.8-9.6,6.8-9.6s4.8,5.5,6.8,9.6c3.9,7.8,9.2,18.4,21.2,18.4h-.2Z"/>
    <path class="st2" d="M72,0h208c4.4,0,8,3.6,8,8h0c0,4.4-3.6,8-8,8H72c-4.4,0-8-3.6-8-8h0c0-4.4,3.6-8,8-8Z"/>
    <path class="st3" d="M312,0h0c4.4,0,8,3.6,8,8h0c0,4.4-3.6,8-8,8h0c-4.4,0-8-3.6-8-8h0c0-4.4,3.6-8,8-8Z"/>
  </g>
</svg>