<?xml version="1.0" encoding="UTF-8"?>
<svg id="flat" xmlns="http://www.w3.org/2000/svg" version="1.1" xmlns:xlink="http://www.w3.org/1999/xlink" viewBox="0 0 479 464">
  <!-- Generator: Adobe Illustrator 29.2.1, SVG Export Plug-In . SVG Version: 2.1.0 Build 116)  -->
  <defs>
    <style>
      .st0 {
        fill: #00b377;
      }

      .st1 {
        fill: #114da6;
      }

      .st2 {
        fill: #7cabe6;
      }

      .st3 {
        fill: #f9b2d6;
      }

      .st4 {
        fill: #0f995d;
      }

      .st5 {
        fill: #eb8900;
      }

      .st6 {
        fill: #f6646c;
      }

      .st7 {
        fill: #f3aa20;
      }

      .st8 {
        fill: #ef88ba;
      }

      .st9 {
        fill: #2e65b8;
      }

      .st10 {
        fill: #e162a1;
      }

      .st11 {
        fill: #5086d9;
      }
    </style>
  </defs>
  <path class="st5" d="M193.5,228h-6.1c-2.2,0-4-1.8-4-4s1.8-4,4-4h6.1c1.4,0,2.5-1.1,2.5-2.5s-.4-1.7-1.2-2.2l-23-13.9c-1.9-1.1-2.5-3.6-1.4-5.5s3.6-2.5,5.5-1.4l23.1,13.9c3.2,2,5,5.3,5,9,0,5.9-4.7,10.6-10.5,10.6Z"/>
  <path class="st8" d="M398.6,251.2h0c-2.4-3.4-7.1-4.2-10.4-1.8l4.4-3.1c3.4-2.4,4.2-7.1,1.8-10.4-2.4-3.4-7.1-4.2-10.4-1.8l4.4-3.1c3.4-2.4,4.2-7.1,1.8-10.4h0c-2.4-3.4-7.1-4.2-10.4-1.8l-4.8,3.2c3.4-2.4,4.2-7.1,1.8-10.4h0c-2.4-3.4-7.1-4.2-10.4-1.8l-5.1,3.6-45,31.4v-20c0-2.4-1-4.6-2.6-6.3-1.6-1.6-3.8-2.6-6.3-2.6-4.9,0-8.9,4-8.8,8.9v31.1c.1,0-24.9,78.7-24.9,78.7l-10.5,33.4h-58.9v12.5c0,32.9,26.7,59.6,59.6,59.5,25.9-.1,48.7-16.8,56.6-41.5l33.9-106.4,42.5-30.5c3.3-2.3,4.1-7,1.7-10.4Z"/>
  <path class="st0" d="M32.8,464l-.2-216h191.4c4.8,0,8.6,3.9,8.6,8.6v207.4H32.8Z"/>
  <polygon class="st6" points="136 288 132 272 132 256 156 256 156 272 152 288 160 448 144 464 128 448 136 288"/>
  <polygon class="st2" points="464 0 264 0 264 64 200 64 200 144 224 144 224 176 256 144 320 144 320 128 400 128 448 176 436 128 464 128 464 0"/>
  <path class="st9" d="M288,84h-64c-2.2,0-4-1.8-4-4s1.8-4,4-4h64c2.2,0,4,1.8,4,4s-1.8,4-4,4Z"/>
  <path class="st9" d="M304,100h-88c-2.2,0-4-1.8-4-4s1.8-4,4-4h88c2.2,0,4,1.8,4,4s-1.8,4-4,4Z"/>
  <path class="st9" d="M240,116h-24c-2.2,0-4-1.8-4-4s1.8-4,4-4h24c2.2,0,4,1.8,4,4s-1.8,4-4,4Z"/>
  <path class="st9" d="M304,116h-48c-2.2,0-4-1.8-4-4s1.8-4,4-4h48c2.2,0,4,1.8,4,4s-1.8,4-4,4Z"/>
  <path class="st9" d="M264,132h-48c-2.2,0-4-1.8-4-4s1.8-4,4-4h48c2.2,0,4,1.8,4,4s-1.8,4-4,4Z"/>
  <path class="st9" d="M304,132h-24c-2.2,0-4-1.8-4-4s1.8-4,4-4h24c2.2,0,4,1.8,4,4s-1.8,4-4,4Z"/>
  <polygon class="st3" points="156 248 156 190 132 190 132 248 144 264 156 248"/>
  <path class="st10" d="M136.8,215.6h19.2v23.6h0c-10.6,0-19.2-8.6-19.2-19.2v-4.4Z"/>
  <path class="st3" d="M180,152v56c0,13.3-10.7,24-24,24h0c-13.3,0-24-10.7-24-24v-56h48Z"/>
  <path class="st1" d="M192,163.8v12.2h-2.8c-14.1,0-28.1-2.7-41.2-8.1l-.6,4.3c-1.2,8.3-6,15.3-12.6,19.5-.5.3-1.1.7-1.7,1-3.9,2.1-8.4,3.3-13.1,3.3l-.6-3.3-.6-3.3-3.4-17.8c-1.4-7.4,1.3-14.2,6-18.7,4.7-4.4,11.4-6.7,18.2-5.3,1.4.3,2.9.8,4.3,1.4l13.4-6.7c6.8-3.4,14.7-3.4,21.4,0,4.1,2,7.4,5.1,9.7,8.9,2.3,3.7,3.6,8.1,3.6,12.6Z"/>
  <path class="st8" d="M168,208h-8c-2.2,0-4-1.8-4-4s1.8-4,4-4h4v-8c0-2.2,1.8-4,4-4s4,1.8,4,4v12c0,2.2-1.8,4-4,4Z"/>
  <path class="st8" d="M165,221.8h-.6c-5,0-10-1.7-13.9-4.9-1.7-1.4-2-3.9-.6-5.6,1.4-1.7,3.9-2,5.6-.6,2.5,2,5.7,3.1,8.9,3.1h.6c2.2,0,4,1.8,4,4s-1.8,4-4,4Z"/>
  <path class="st5" d="M139.6,147.6c-3.2,9-4.8,18.5-4.8,28.1v17h-16v-17c0-7.7.9-15.4,2.6-22.8,4.6-4.5,11.3-6.7,18.2-5.3Z"/>
  <circle class="st5" cx="132" cy="193.5" r="16"/>
  <rect class="st5" x="123.7" y="177.5" width="8.3" height="32"/>
  <circle class="st7" cx="124" cy="193.5" r="16"/>
  <path class="st0" d="M204.3,248v120h58.9l5.1-16.3v-63.7c0-22.1-17.9-40-40-40h-24Z"/>
  <path class="st10" d="M349.7,245.3l25.2-17.8c1.8-1.3,2.2-3.8,1-5.6h0c-1.3-1.8-3.8-2.2-5.6-1l-25.2,17.8c-1.8,1.3-2.2,3.8-1,5.6h0c1.3,1.8,3.8,2.3,5.6,1Z"/>
  <path class="st10" d="M359.4,256.6l24.6-17.4c1.8-1.3,2.2-3.8,1-5.6h0c-1.3-1.8-3.8-2.2-5.6-1l-24.6,17.4c-1.8,1.3-2.2,3.8-1,5.6h0c1.3,1.9,3.8,2.3,5.6,1Z"/>
  <path class="st10" d="M363.3,272.4l24.6-17.4c1.8-1.3,2.2-3.8,1-5.6h0c-1.3-1.8-3.8-2.2-5.6-1l-24.6,17.4c-1.8,1.3-2.2,3.8-1,5.6h0c1.3,1.9,3.7,2.3,5.6,1Z"/>
  <path class="st0" d="M64,280v88H0v-88c0-8.8,3.6-16.8,9.4-22.6,5.8-5.8,13.8-9.4,22.6-9.4,17.7,0,32,14.3,32,32Z"/>
  <path class="st3" d="M212,400v64H40c-22.1,0-40-17.9-40-40v-56h64v32h124l3-4.5c2.7-4.1,8.4-5.1,12.3-2.1l8.7,6.6Z"/>
  <path class="st4" d="M64,368h0c-2.2,0-4-1.8-4-4v-48c0-2.2,1.8-4,4-4h0c2.2,0,4,1.8,4,4v48c0,2.2-1.8,4-4,4Z"/>
  <path class="st4" d="M232,368h0c-2.2,0-4-1.8-4-4v-48c0-2.2,1.8-4,4-4h0c2.2,0,4,1.8,4,4v48c0,2.2-1.8,4-4,4Z"/>
  <path class="st3" d="M192,416h40c4.4,0,8-3.6,8-8h0c0-4.4-3.6-8-8-8h-40v16Z"/>
  <path class="st3" d="M192,432h40c4.4,0,8-3.6,8-8h0c0-4.4-3.6-8-8-8h-40v16Z"/>
  <path class="st3" d="M192,448h40c4.4,0,8-3.6,8-8h0c0-4.4-3.6-8-8-8h-40v16Z"/>
  <path class="st3" d="M192,464h40c4.4,0,8-3.6,8-8h0c0-4.4-3.6-8-8-8h-40v16Z"/>
  <path class="st8" d="M228,420h-32c-2.2,0-4-1.8-4-4h0c0-2.2,1.8-4,4-4h32c2.2,0,4,1.8,4,4h0c0,2.2-1.8,4-4,4Z"/>
  <path class="st8" d="M228,436h-32c-2.2,0-4-1.8-4-4h0c0-2.2,1.8-4,4-4h32c2.2,0,4,1.8,4,4h0c0,2.2-1.8,4-4,4Z"/>
  <path class="st8" d="M228,436h-32c-2.2,0-4-1.8-4-4h0c0-2.2,1.8-4,4-4h32c2.2,0,4,1.8,4,4h0c0,2.2-1.8,4-4,4Z"/>
  <path class="st8" d="M228,452h-32c-2.2,0-4-1.8-4-4h0c0-2.2,1.8-4,4-4h32c2.2,0,4,1.8,4,4h0c0,2.2-1.8,4-4,4Z"/>
  <polygon class="st4" points="144 264 128 280 116 248 132 248 144 264"/>
  <polygon class="st4" points="144 264 160 280 172 248 156 248 144 264"/>
  <rect class="st9" x="271" y="448" width="176" height="16"/>
  <rect class="st1" x="167" y="448" width="104" height="16"/>
  <polygon class="st11" points="447 448 271 448 303 328 479 328 447 448"/>
  <circle class="st9" cx="376" cy="387.2" r="20"/>
  <path class="st10" d="M254.2,396.8c1.7,0,3.3-1.1,3.8-2.8l7.7-24.4c.7-2.1-.5-4.4-2.6-5-2.1-.7-4.4.5-5,2.6l-7.7,24.4c-.7,2.1.5,4.4,2.6,5,.4.1.8.2,1.2.2Z"/>
  <path class="st11" d="M368,20h-88c-2.2,0-4-1.8-4-4s1.8-4,4-4h88c2.2,0,4,1.8,4,4s-1.8,4-4,4Z"/>
  <path class="st11" d="M448,20h-64c-2.2,0-4-1.8-4-4s1.8-4,4-4h64c2.2,0,4,1.8,4,4s-1.8,4-4,4Z"/>
  <path class="st11" d="M448,36h-120c-2.2,0-4-1.8-4-4s1.8-4,4-4h120c2.2,0,4,1.8,4,4s-1.8,4-4,4Z"/>
  <path class="st11" d="M448,52h-168c-2.2,0-4-1.8-4-4s1.8-4,4-4h168c2.2,0,4,1.8,4,4s-1.8,4-4,4Z"/>
  <path class="st11" d="M376,68h-96c-2.2,0-4-1.8-4-4s1.8-4,4-4h96c2.2,0,4,1.8,4,4s-1.8,4-4,4Z"/>
  <path class="st11" d="M448,68h-56c-2.2,0-4-1.8-4-4s1.8-4,4-4h56c2.2,0,4,1.8,4,4s-1.8,4-4,4Z"/>
  <path class="st11" d="M448,84h-136c-2.2,0-4-1.8-4-4s1.8-4,4-4h136c2.2,0,4,1.8,4,4s-1.8,4-4,4Z"/>
  <path class="st11" d="M448,100h-128c-2.2,0-4-1.8-4-4s1.8-4,4-4h128c2.2,0,4,1.8,4,4s-1.8,4-4,4Z"/>
  <path class="st11" d="M352,116h-32c-2.2,0-4-1.8-4-4s1.8-4,4-4h32c2.2,0,4,1.8,4,4s-1.8,4-4,4Z"/>
  <path class="st11" d="M448,116h-80c-2.2,0-4-1.8-4-4s1.8-4,4-4h80c2.2,0,4,1.8,4,4s-1.8,4-4,4Z"/>
</svg>