<?xml version="1.0" encoding="UTF-8"?>
<svg id="Layer_1" xmlns="http://www.w3.org/2000/svg" version="1.1" xmlns:xlink="http://www.w3.org/1999/xlink" viewBox="0 0 492 492">
  <!-- Generator: Adobe Illustrator 29.2.1, SVG Export Plug-In . SVG Version: 2.1.0 Build 116)  -->
  <defs>
    <style>
      .st0 {
        fill: url(#linear-gradient);
        fill-rule: evenodd;
      }
    </style>
    <linearGradient id="linear-gradient" x1="400.4" y1="515.6" x2="91.4" y2="-19.6" gradientTransform="translate(0 494) scale(1 -1)" gradientUnits="userSpaceOnUse">
      <stop offset="0" stop-color="#00bef1"/>
      <stop offset=".4" stop-color="#3382c4"/>
      <stop offset=".7" stop-color="#4168b1"/>
      <stop offset="1" stop-color="#4168b1"/>
    </linearGradient>
  </defs>
  <path class="st0" d="M452.8,315.4c15-44.8,15-93.9,0-138.7-1-3.1.7-6.5,3.8-7.6,3.1-1,6.5.7,7.6,3.8,15.9,47.4,15.9,99,0,146.3-1,3.1-4.4,4.8-7.6,3.8-3.1-1-4.8-4.5-3.8-7.6h0ZM315.4,452.8c-44.8,15-93.9,15-138.7,0-3.1-1-6.5.6-7.6,3.8-1,3.1.6,6.5,3.8,7.6,47.4,15.8,98.9,15.8,146.3,0,3.1-1,4.8-4.5,3.8-7.6-1-3.1-4.4-4.8-7.6-3.8h0ZM35.5,169.1c-3.1-1-6.5.7-7.6,3.8-15.9,47.4-15.9,99,0,146.3,1,3.1,4.4,4.8,7.6,3.8,3.1-1,4.8-4.5,3.8-7.6-15-44.8-15-93.9,0-138.7,1-3.1-.7-6.5-3.8-7.6h0ZM176.7,39.2c44.8-15,93.9-15,138.7,0,3.1,1,6.5-.6,7.6-3.8,1-3.1-.6-6.5-3.8-7.6-47.4-15.9-98.9-15.9-146.3,0-3.1,1-4.8,4.5-3.8,7.6,1,3.1,4.4,4.8,7.6,3.8h0ZM35.1,80.7c-17.1-28.8,3.5-66,37.6-66s54.7,37.2,37.6,66c12.8,5.2,24.1,13.8,30,26,4.9-9.9,7.6-21,7.6-32.7C147.9,33.1,114.8,0,73.9,0S0,33.1,0,73.9s2.3,21,6.4,30.2c6.2-10.9,16.8-18.6,28.6-23.4h0ZM132,119.7c-2.7-14.2-14.5-23.9-29.7-29.2-16.8,15.5-42.5,15.5-59.3,0-14.3,5-25.5,13.8-29.1,26.6,28.7,39.9,87.6,41.2,118.1,2.6ZM72.7,90.1c17.5,0,31.7-14.2,31.7-31.7s-14.2-31.7-31.7-31.7-31.7,14.2-31.7,31.7,14.2,31.7,31.7,31.7ZM296,168.6h-77.6c-6.4,0-11.6,5.2-11.6,11.6v28h66.9c13,0,23.6,10.6,23.6,23.6v40h54.9c6.4,0,11.6-5.2,11.6-11.6v-80.1c0-6.4-5.2-11.6-11.6-11.6h-14.3v-41.8l-41.8,41.8h0ZM154.3,365.2v-41.8h-14.3c-6.4,0-11.6-5.2-11.6-11.5v-80.1c0-6.4,5.2-11.6,11.6-11.6h133.7c6.4,0,11.6,5.2,11.6,11.6v80.1c0,6.4-5.2,11.5-11.6,11.5h-77.6l-41.8,41.8h0ZM147.7,247c0,3.3,2.7,6,6,6h106.3c3.3,0,6-2.7,6-6s-2.7-6-6-6h-106.3c-3.3,0-6,2.7-6,6h0ZM147.7,271.8c0,3.3,2.7,6,6,6h106.3c3.3,0,6-2.7,6-6s-2.7-6-6-6h-106.3c-3.3,0-6,2.7-6,6h0ZM259.9,302.5c3.3,0,6-2.7,6-6s-2.7-6-6-6h-106.3c-3.3,0-6,2.7-6,6s2.7,6,6,6h106.3ZM379.2,80.7c-17.1-28.8,3.5-66,37.6-66s54.7,37.2,37.6,66c12.8,5.2,24.1,13.8,30,26,4.9-9.9,7.7-21,7.7-32.7C492,33.1,458.9,0,418.1,0s-73.9,33.1-73.9,73.9,2.3,21,6.4,30.2c6.2-10.9,16.8-18.6,28.7-23.4h0ZM446.4,90.5c-16.7,15.5-42.5,15.5-59.3,0-14.3,5-25.5,13.8-29.1,26.6,28.7,39.9,87.6,41.2,118.1,2.6-2.7-14.2-14.5-23.9-29.7-29.2h0ZM416.8,90.1c17.5,0,31.7-14.2,31.7-31.7s-14.2-31.7-31.7-31.7-31.7,14.2-31.7,31.7,14.2,31.7,31.7,31.7ZM418.1,344.1c-40.8,0-73.9,33.1-73.9,73.9s2.3,21,6.4,30.2c6.2-10.9,16.8-18.6,28.7-23.4-17.1-28.7,3.5-66,37.6-66s54.7,37.2,37.6,66c12.8,5.2,24.1,13.8,30,26,4.9-9.9,7.7-21,7.7-32.7,0-40.8-33.1-73.9-73.9-73.9h0ZM446.4,434.6c-16.7,15.4-42.5,15.4-59.3,0-14.3,5-25.5,13.8-29.1,26.6,28.7,39.9,87.6,41.2,118.1,2.6-2.7-14.1-14.5-23.9-29.7-29.2h0ZM416.8,434.2c17.5,0,31.7-14.2,31.7-31.7s-14.2-31.7-31.7-31.7-31.7,14.2-31.7,31.7,14.2,31.7,31.7,31.7ZM73.9,344.1C33.1,344.1,0,377.2,0,418.1s2.3,21,6.4,30.2c6.2-10.9,16.8-18.6,28.6-23.4-17.1-28.7,3.5-66,37.6-66s54.7,37.2,37.6,66c12.8,5.2,24.1,13.8,30,26,4.9-9.9,7.6-21,7.6-32.7,0-40.8-33.1-73.9-73.9-73.9ZM102.3,434.6c-16.8,15.4-42.5,15.4-59.3,0-14.3,5-25.5,13.8-29.1,26.6,28.7,39.9,87.6,41.2,118.1,2.6-2.7-14.1-14.5-23.9-29.7-29.2h0ZM72.7,434.2c17.5,0,31.7-14.2,31.7-31.7s-14.2-31.7-31.7-31.7-31.7,14.2-31.7,31.7,14.2,31.7,31.7,31.7Z"/>
</svg>