<?xml version="1.0" encoding="UTF-8"?>
<svg id="Layer_1" data-name="Layer 1" xmlns="http://www.w3.org/2000/svg" xmlns:xlink="http://www.w3.org/1999/xlink" viewBox="0 0 512 512">
  <defs>
    <style>
      .cls-1 {
        fill: url(#linear-gradient);
        stroke-width: 0px;
      }
    </style>
    <linearGradient id="linear-gradient" x1="256" y1="508.001" x2="256" y2="3.999" gradientUnits="userSpaceOnUse">
      <stop offset="0" stop-color="#9345ff"/>
      <stop offset="1" stop-color="#00c1ff"/>
    </linearGradient>
  </defs>
  <path class="cls-1" d="m405.096,140.636l-33.733-33.733c-3.023-3.022-7.646-3.474-11.197-1.093l-21.796,14.617-44.749-18.539-5.076-25.744c-.827-4.194-4.417-7.145-8.691-7.145h-47.706c-4.275,0-7.864,2.951-8.691,7.145l-5.076,25.744-44.749,18.539-21.796-14.617c-3.55-2.38-8.174-1.929-11.197,1.093l-33.733,33.733c-3.022,3.023-3.474,7.648-1.093,11.198l14.617,21.796-18.539,44.75-25.743,5.076c-4.194.827-7.145,4.416-7.145,8.691v47.705c0,4.275,2.951,7.865,7.145,8.692l25.744,5.075,18.539,44.749-14.617,21.796c-2.381,3.55-1.929,8.176,1.093,11.198l33.733,33.732c3.022,3.022,7.647,3.474,11.197,1.094l21.797-14.617,44.749,18.539,5.076,25.745c.827,4.194,4.417,7.145,8.692,7.145h47.706c4.274,0,7.864-2.951,8.691-7.145l5.076-25.745,44.749-18.539,21.796,14.617c3.551,2.38,8.175,1.928,11.198-1.094l33.733-33.732c3.023-3.022,3.474-7.648,1.093-11.198l-14.617-21.796,18.539-44.749,25.744-5.075c4.194-.827,7.145-4.417,7.145-8.692v-47.705c0-4.275-2.951-7.864-7.145-8.691l-25.743-5.076-18.539-44.75,14.617-21.796c2.38-3.55,1.929-8.175-1.093-11.198Zm-149.096,221.314c-58.514,0-105.951-47.436-105.951-105.951s47.436-105.95,105.951-105.95,105.951,47.436,105.951,105.95-47.436,105.951-105.951,105.951Zm41.247-146.238l39.876,34.541c1.67,1.445,2.628,3.539,2.628,5.743s-.958,4.303-2.628,5.748l-39.876,34.541c-1.434,1.246-3.214,1.859-4.973,1.859-2.125,0-4.245-.89-5.753-2.628-2.749-3.173-2.403-7.973.769-10.722l33.248-28.798-33.248-28.793c-3.172-2.748-3.518-7.549-.769-10.721,2.759-3.178,7.559-3.518,10.727-.77Zm-72.537,11.491l-33.248,28.793,33.248,28.798c3.167,2.749,3.518,7.549.77,10.722-1.508,1.738-3.628,2.628-5.759,2.628-1.759,0-3.528-.613-4.973-1.859l-39.87-34.541c-1.67-1.445-2.628-3.539-2.628-5.748s.958-4.298,2.628-5.743l39.87-34.541c3.172-2.749,7.973-2.408,10.732.77,2.748,3.172,2.398,7.973-.77,10.721Zm49.382-9.35l-21.495,80.222c-.911,3.402-3.984,5.638-7.339,5.638-.655,0-1.314-.084-1.979-.262-4.052-1.084-6.46-5.256-5.376-9.308l21.506-80.222c1.089-4.057,5.245-6.46,9.308-5.376,4.052,1.084,6.465,5.256,5.376,9.308ZM54.795,123.316c3.156,2.22,7.514,1.461,9.734-1.695,21.55-30.648,50.284-55.892,83.759-73.291,32.228-16.75,68.859-26.217,107.711-26.217,14.973,0,29.558,1.389,43.636,4.044,5.608,1.058,11.149,2.318,16.615,3.771-.034.558-.053,1.121-.053,1.688,0,15.231,12.392,27.624,27.619,27.624s27.624-12.393,27.624-27.624-12.392-27.619-27.624-27.619c-9.71,0-18.268,5.041-23.193,12.641-6.047-1.628-12.189-3.034-18.417-4.209-15.029-2.834-30.477-4.318-46.206-4.318-41.16,0-79.987,10.039-114.164,27.803-35.449,18.425-65.891,45.176-88.736,77.666-2.22,3.156-1.461,7.514,1.695,9.734ZM343.816,18.001c7.514,0,13.621,6.107,13.621,13.617s-6.107,13.621-13.621,13.621-13.617-6.107-13.617-13.621,6.112-13.617,13.617-13.617Zm151.545,302.619c1.627-6.046,3.033-12.187,4.208-18.414,2.835-15.029,4.318-30.477,4.318-46.206,0-41.16-10.039-79.987-27.803-114.164-18.425-35.449-45.176-65.891-77.666-88.736-3.156-2.22-7.514-1.461-9.734,1.695-2.22,3.156-1.461,7.514,1.695,9.734,30.648,21.55,55.892,50.284,73.291,83.759,16.751,32.228,26.217,68.859,26.217,107.711,0,14.973-1.389,29.558-4.044,43.636-1.057,5.607-2.316,11.146-3.77,16.61-.561-.034-1.125-.054-1.695-.054-15.231,0-27.619,12.392-27.619,27.624s12.387,27.619,27.619,27.619,27.624-12.388,27.624-27.619c0-9.712-5.039-18.27-12.64-23.196Zm-14.983,36.818c-7.51,0-13.617-6.112-13.617-13.621s6.107-13.622,13.617-13.622,13.621,6.112,13.621,13.622-6.112,13.621-13.621,13.621Zm-23.173,31.246c-3.156-2.22-7.514-1.461-9.734,1.695-21.55,30.648-50.284,55.892-83.759,73.291-32.228,16.75-68.859,26.217-107.711,26.217-14.973,0-29.558-1.389-43.636-4.044-5.61-1.058-11.153-2.318-16.62-3.773.034-.56.053-1.123.053-1.692,0-15.231-12.387-27.624-27.619-27.624s-27.619,12.392-27.619,27.624,12.387,27.624,27.619,27.624c9.713,0,18.269-5.04,23.194-12.642,6.048,1.628,12.192,3.035,18.421,4.21,15.029,2.835,30.477,4.318,46.206,4.318,41.16,0,79.987-10.039,114.164-27.803,35.449-18.425,65.891-45.176,88.736-77.666,2.22-3.156,1.461-7.514-1.695-9.734Zm-289.026,105.315c-7.509,0-13.622-6.112-13.622-13.621s6.112-13.622,13.622-13.622,13.621,6.107,13.621,13.622-6.112,13.621-13.621,13.621Zm-46.558-46.529c-30.648-21.55-55.892-50.284-73.291-83.759-16.75-32.228-26.217-68.859-26.217-107.711,0-14.973,1.389-29.558,4.044-43.636,1.058-5.608,2.318-11.15,3.771-16.615.559.034,1.121.053,1.688.053,15.231,0,27.619-12.392,27.619-27.624s-12.388-27.624-27.619-27.624-27.619,12.397-27.619,27.624c0,9.714,5.04,18.272,12.641,23.198-1.628,6.047-3.034,12.189-4.209,18.417-2.834,15.029-4.318,30.477-4.318,46.206,0,41.16,10.039,79.987,27.803,114.164,18.425,35.449,45.176,65.891,77.666,88.736,3.156,2.22,7.514,1.461,9.734-1.695,2.22-3.156,1.461-7.514-1.695-9.734ZM18.001,168.179c0-7.51,6.107-13.622,13.617-13.622s13.621,6.112,13.621,13.622-6.112,13.626-13.621,13.626-13.617-6.112-13.617-13.626Z"/>
</svg>