<?xml version="1.0" encoding="UTF-8"?>
<svg id="Layer_1" data-name="Layer 1" xmlns="http://www.w3.org/2000/svg" width="1585.06" height="1428.34" viewBox="0 0 1585.06 1428.34">
  <path d="M137.53,1263.28c-3.97-.87-17.14-13.22-19.92-17.08-16.62-23.14,2.25-42.28,22.13-53.71l529.79-1.21,2.06-.94c3.26-24.64,19.72-48.4,43.92-56.08l82.81-.19c15.05-3.37,3.78-34.2.98-43.56-9.99-33.39-22.43-66.16-32.43-99.57l-1.47-1.53c-128.27-11.88-256.66-22.62-384.86-35.14-70.06-6.84-143.47-12.06-212.86-22.14-35.25-5.12-67.46-19.65-78.92-56.08L17.8,417c-33.5-32.33-16.51-81.85,24.2-97.25,133.37-30,268.07-53.1,402.84-76.16,152.97-26.18,306.45-53.98,459.85-77.15,34.05-5.14,68.21-9.23,102.63-11.14,26.05-43.14,64.93-73.43,98.73-109.5,15.26-16.28,19.77-29.92,43.96-35.04,35.78-7.57,65.44,10.36,78.49,43.53,1.23,3.12,4.74,17.37,6.15,17.85,7.28.51,14.63-.2,21.91.09,45.25,1.77,90.72,2.5,135.97,4.03,3.89.13,12.03.75,15.04-.94,4.87-2.75,16.38-14.08,21.47-18.53,20.94-18.32,43.37-47.91,70.56-54.44,94.14-22.6,123.08,124.83,22.14,128.14-32.82,34.69-80.21,62.2-101.46,105.54-52.21,206.93-95.89,416.33-148.93,623.07-2.04,7.96-3.78,16.06-6.04,23.96-5.5,19.27-17.03,39.46-8.83,60.26,13.31,18,25.36,38.34,39.13,55.87,34.59,44.05,79.51,83.98,114.39,127.61,19.1,23.89,33.49,57.71,23.31,88.25-7.4,22.21-27.07,37.11-46.21,48.81,29.47,53.3,17.98,117.4-35.76,149.21-35.99,21.3-75.95,19.55-111.98-.64-52.6-29.47-55.83-97.17-32.33-147.17l-858.99,2c5.32,12.76,10.16,25.76,11.87,39.62,9.44,76.28-69.72,142.74-143.14,114.14-60.1-23.41-76.39-103.26-50.74-157.76h-28.5Z" style="fill: #030504;"/>
  <polygon points="1141.02 204.29 1091.7 199.4 1066.03 233.27 1140.92 224.17 1141.02 204.29" style="fill: #030504;"/>
  <polygon points="1030.02 200.28 927.02 207.27 924.03 247.28 1017.92 238.17 1030.02 200.28" style="fill: #030504;"/>
  <polygon points="890.02 209.28 756.13 233.38 760.03 270.28 884.02 255.27 890.02 209.28" style="fill: #030504;"/>
  <path d="M1300.88,219.43c-233.34,21.07-465.56,51.71-697.5,83.71-139.66,17.11-279.85,30.6-418.87,52.13-46.14-2.41-93.22-11.85-139-14.97-17.36-1.18-26.48,9.46-32.24,24.72-8.92,23.62,8.16,46.48,32.22,48.3,20.2,1.52,46.45.48,67.08,0,71.68-1.68,141.11-13.93,212.1-22.9,323.08-40.82,646.43-79.98,969.37-121.63,20.68-10.25,15.73-32.33,6.85-49.36Z" style="fill: #030504;"/>
  <polygon points="717.92 275.17 716.02 240.78 714.45 238.41 584.97 260.89 588.03 292.28 717.92 275.17" style="fill: #030504;"/>
  <polygon points="544.92 299.17 544.02 267.78 542.45 265.41 419.96 287.89 423.03 314.28 544.92 299.17" style="fill: #030504;"/>
  <path d="M1303.02,280.28l-29.99,2c-41.36,190.01-82.35,380.12-128.49,569.01-3.37,11.72-9.34,24.75-21.16,29.84-10.12,4.36-22.07.71-32.86.16-284.88-14.64-569.26-36.81-853.97-54.03-9.02-.85-8.33-2.54-12.19-10.02-19.3-.43-38.5-2.71-57.82-2.97-5.44-.07-8.1-1.72-13.88,2.14-5.02,3.35-1.11,15.69,1.18,20.55,12.55,26.64,46.5,24.09,71.69,26.31,237.97,20.93,475.38,29.6,713.99,49.01,35.94,2.92,72.05,7.91,108.02,9.98,24.86,1.43,49.85,4.08,72.85-6.13,19.14-8.5,36.16-22.98,44.37-42.63l65.79-264.21,72.48-329.01Z" style="fill: #030504;"/>
  <path d="M1245.02,286.28l-80.11,10.58c-5.28,18.24-13.16,35.7-20.7,53.1-13.18,30.42-27.4,60.58-41.32,90.68-64.99,140.47-134.25,278.96-200.86,418.64l36.85,3.84,306.15-576.83Z" style="fill: #030504;"/>
  <polygon points="377.03 295.28 250.95 320.76 253.06 332.24 254.51 332.34 377.03 319.28 377.03 295.28" style="fill: #030504;"/>
  <path d="M1221.98,440.23l35.03-144.95-66.95,144.54c-.31,2,.07,1.28,1.45,1.46,9.82,1.27,20.54-1.88,30.47-1.05Z" style="fill: #030504;"/>
  <polygon points="1152.02 300.28 1024.16 317.41 982.03 432.27 1096.91 433.16 1152.02 300.28" style="fill: #030504;"/>
  <polygon points="1013.02 314.28 991.98 317.94 815.05 853.23 835.96 856.2 1013.02 314.28" style="fill: #030504;"/>
  <polygon points="980.02 318.28 879.16 332.41 845.03 435.27 936.93 437.18 980.02 318.28" style="fill: #030504;"/>
  <path d="M208.02,323.27c-20.85,4.79-42.91,7.64-63.56,12.99-1.65.43-2.93-1.02-2.43,2.02,2.13.13,4.35-.24,6.49.02,12.32,1.47,28.02,4.85,40,5.06,6.92.12,13.88-3.06,20.83-3.25l1.26-.76-2.59-16.07Z" style="fill: #030504;"/>
  <path d="M768.03,686.28l-6.01,15.99-.27-2.76,110.28-366.22-12.91,1.09-151.01,508.81,9.81.99,38-126.29c.74-1.05,2.91-.71,4.11-.6.2.02,1.11.95,2.42,1.04,25.83,1.85,51.65,4.74,77.49,6.86l33.09-104.9-79.91-4.91c-7.01,24.04-17.74,47.01-25.09,70.9Z" style="fill: #030504;"/>
  <polygon points="848.02 337.28 766.07 347.33 742.03 431.27 817.93 432.18 848.02 337.28" style="fill: #030504;"/>
  <polygon points="755.02 349.28 731.96 352.91 593.05 836.23 611.96 839.21 755.02 349.28" style="fill: #030504;"/>
  <polygon points="721.02 353.28 588.07 369.33 571.03 431.27 695.93 432.18 721.02 353.28" style="fill: #030504;"/>
  <polygon points="578.02 370.28 557.99 373.94 441.1 822.65 460.02 828.28 578.02 370.28" style="fill: #030504;"/>
  <polygon points="547.02 373.28 424.02 388.28 418.02 431.28 531.98 432.23 547.02 373.28" style="fill: #030504;"/>
  <polygon points="410.02 391.28 391.02 393.28 328.08 821.23 342.03 822.28 410.02 391.28" style="fill: #030504;"/>
  <path d="M258.03,410.28v24l119-1.99c-.65-11.42,4.07-24.41,4.04-35.47,0-1.85.84-3.79-1.47-3.48-40.54,5.39-80.97,12-121.58,16.94Z" style="fill: #030504;"/>
  <path d="M250.02,818.27l-4.57-407.86-17.48,3.45,4.04,404.85c.27,1.79,15.65-.25,18.01-.43Z" style="fill: #030504;"/>
  <polygon points="215.02 415.27 96.02 424.27 113.15 575.15 220.02 601.28 215.02 415.27" style="fill: #030504;"/>
  <polygon points="694.03 442.28 570.03 442.28 566.03 454.27 690.41 456.34 694.03 442.28" style="fill: #030504;"/>
  <polygon points="817.02 443.28 738.64 442.22 736.02 453.27 813.42 456.34 817.02 443.28" style="fill: #030504;"/>
  <polygon points="1090.02 442.28 982.73 446.26 975.03 460.27 1078.35 465.32 1090.02 442.28" style="fill: #030504;"/>
  <polygon points="527.02 444.29 414.02 443.27 413.02 456.28 522.36 455.32 527.02 444.29" style="fill: #030504;"/>
  <polygon points="374.03 444.27 259.02 445.27 259.02 458.28 375.03 457.28 374.03 444.27" style="fill: #030504;"/>
  <polygon points="932.02 447.28 847.68 445.23 844.03 455.27 928.41 458.34 932.02 447.28" style="fill: #030504;"/>
  <polygon points="1160.03 473.28 1218.03 473.28 1221.03 455.28 1169.49 454.21 1167.92 454.9 1160.03 473.28" style="fill: #030504;"/>
  <polygon points="807.02 466.28 728.07 464.32 697.03 575.27 769.93 577.18 807.02 466.28" style="fill: #030504;"/>
  <polygon points="685.02 467.28 560.07 465.32 532.03 569.27 653.93 570.18 685.02 467.28" style="fill: #030504;"/>
  <polygon points="519.03 466.28 412.53 466.28 395.02 563.28 492.45 567.34 519.03 466.28" style="fill: #030504;"/>
  <polygon points="925.02 468.28 839.12 466.38 803.03 580.27 884.93 583.18 925.02 468.28" style="fill: #030504;"/>
  <polygon points="370.03 467.27 260.02 470.27 261.46 557.34 358.09 562.84 370.03 467.27" style="fill: #030504;"/>
  <polygon points="1079.02 473.28 972.12 468.38 936.03 587.27 1016.87 590.12 1079.02 473.28" style="fill: #030504;"/>
  <polygon points="1216.03 478.28 1180.07 479.33 1151.02 605.28 1185.98 608.22 1216.03 478.28" style="fill: #030504;"/>
  <polygon points="1115.03 597.28 1135.02 515.28 1096.03 597.28 1115.03 597.28" style="fill: #030504;"/>
  <polygon points="258.03 570.28 258.03 586.28 353.03 586.28 355.03 574.28 258.03 570.28" style="fill: #030504;"/>
  <polygon points="393.03 576.28 393.03 590.28 486.45 594.34 490.04 577.79 393.03 576.28" style="fill: #030504;"/>
  <polygon points="649.03 584.28 532.61 579.22 530.02 593.28 646.45 596.34 649.03 584.28" style="fill: #030504;"/>
  <polygon points="768.03 588.28 696.64 585.22 692.03 600.27 766.02 603.27 768.03 588.28" style="fill: #030504;"/>
  <polygon points="882.03 593.28 802.03 591.29 800.02 607.28 877.41 611.34 882.03 593.28" style="fill: #030504;"/>
  <polygon points="351.03 599.28 260.17 597.42 258.02 693.28 334.03 698.28 351.03 599.28" style="fill: #030504;"/>
  <polygon points="1012.02 602.28 934.64 598.22 930.02 612.27 1002.32 619.3 1012.02 602.28" style="fill: #030504;"/>
  <polygon points="485.03 602.28 391.97 600.72 373.02 698.28 459.98 704.23 485.03 602.28" style="fill: #030504;"/>
  <polygon points="643.02 608.28 524.98 605.74 499.02 705.27 616.98 710.23 643.02 608.28" style="fill: #030504;"/>
  <polygon points="762.02 613.28 686.07 609.33 659.03 712.27 728.93 715.18 762.02 613.28" style="fill: #030504;"/>
  <polygon points="1188.03 620.28 1092.66 610.19 1081.03 631.27 1181.47 645.32 1188.03 620.28" style="fill: #030504;"/>
  <polygon points="220.02 619.27 123.02 630.28 136.14 706.17 223.02 720.27 220.02 619.27" style="fill: #030504;"/>
  <polygon points="1001.02 626.28 926.13 622.39 892.05 726.24 944.9 736.16 1001.02 626.28" style="fill: #030504;"/>
  <polygon points="1138.03 651.28 1089.03 645.27 1069.02 736.27 1114.98 738.24 1138.03 651.28" style="fill: #030504;"/>
  <path d="M1045.98,733.23l17.04-77.95-39.9,74.61c-.49,1.98.22,1.11,1.28,1.5,1.94.71,20.8,2.6,21.58,1.85Z" style="fill: #030504;"/>
  <polygon points="1180.03 657.28 1151.06 655.32 1131.11 736.19 1158.01 740.27 1180.03 657.28" style="fill: #030504;"/>
  <polygon points="332.03 709.28 259.02 706.27 258.96 716.66 330.01 724.27 332.03 709.28" style="fill: #030504;"/>
  <polygon points="457.02 715.28 372.04 710.29 369.97 724.72 452.42 731.34 457.02 715.28" style="fill: #030504;"/>
  <polygon points="613.03 720.28 499.03 718.29 497.02 733.28 609.45 737.34 613.03 720.28" style="fill: #030504;"/>
  <polygon points="727.03 727.28 658.64 723.22 654.02 737.27 723.41 741.34 727.03 727.28" style="fill: #030504;"/>
  <path d="M258.03,731.78v81.5l60,6.01,11-84.01-69.36-6.07c-.56.08-1.59,2.18-1.65,2.57Z" style="fill: #030504;"/>
  <polygon points="839.03 733.28 761.63 729.22 758.95 739.64 836.46 749.32 839.03 733.28" style="fill: #030504;"/>
  <polygon points="451.03 740.28 367.95 735.7 353.02 821.28 431.98 824.23 451.03 740.28" style="fill: #030504;"/>
  <path d="M939.03,743.29l-48.38-8.08-5.62,12.55,48.35,9.61c.75-.15,6.25-13.38,5.65-14.08Z" style="fill: #030504;"/>
  <polygon points="222.03 736.28 149.95 755.75 155.02 801.28 222.03 804.28 222.03 736.28" style="fill: #030504;"/>
  <polygon points="606.02 746.28 490.98 740.73 468.03 826.27 582.98 833.23 606.02 746.28" style="fill: #030504;"/>
  <polygon points="721.03 751.28 649.1 746.35 620.02 837.27 702.02 843.27 721.03 751.28" style="fill: #030504;"/>
  <path d="M1156.93,752.38l-28.9-6.09-.05,10.33c.4,1.73,25.24,5.04,29.04,5.67l-.09-9.91Z" style="fill: #030504;"/>
  <polygon points="1112.03 752.28 1069.49 750.25 1054.1 832.93 1054.97 836.84 1095.02 844.29 1112.03 752.28" style="fill: #030504;"/>
  <polygon points="836.02 757.28 750.99 750.69 724.03 845.27 804.93 848.18 836.02 757.28" style="fill: #030504;"/>
  <polygon points="933.02 764.28 879.03 758.28 848.02 851.27 891.86 854.11 933.02 764.28" style="fill: #030504;"/>
  <path d="M1148.03,766.28l-22-4.01c-5.39,27.47-14.15,54.45-18.91,81.92l17.47,7.03,23.44-84.94Z" style="fill: #030504;"/>
  <polygon points="1052.89 780.42 998.03 764.28 997.22 772.09 1030.88 793.99 1019.61 863.39 1035.99 865.24 1052.77 794.52 1052.89 780.42" style="fill: #030504;"/>
  <path d="M1020.82,801.48c-9.45-3.77-20.31-16.05-29.1-19.43-.92-.35-1.66-1.21-2.71-.34l-25.98,55.57,50.99,2,6.8-37.8Z" style="fill: #030504;"/>
  <path d="M1153.02,1015.27c21,3.91,40.78,17.27,57.9,29.61,38.62,27.85,77.01,66.75,108.62,102.38,4.94,5.57,23,24.76,25.22,29.78,5.16,11.64-1.71,26-14.48,28l-1190.08.92c-6.92,2.23-15.65,8.47-16.94,16.05-1.71,10.03,4.92,27.27,16.21,28.31,18.1,1.67,40.38-.35,59.09-.09,362.7,5.15,726.08,4.82,1088.92,1,25.66-.27,61.61,3.06,85.78-.22,56.19-7.63,58.22-69.48,31.76-108.24-43.22-47.12-87.74-94.5-126.96-145.04-12.89-16.62-26.77-34.01-35.05-53.46-5.71,8.16-10.46,16.87-17.01,24.47-13.89,16.11-32.35,29.76-52.01,37.99-6.62,2.78-13.15,4.09-19.57,6.43-1.39.51-1.7-.35-1.4,2.1Z" style="fill: #030504;"/>
  <path d="M689.07,1191.23c54.06.96,108.29,1.66,162.47,2.08,10.47-2.72,18.88-11.74,24.28-20.72,19.66-32.67,10.88-63.63,3.71-98.32-5.24-25.35-11.64-50.6-18.45-75.55l-81.06-8.43,38.54,120.95c4.4,12.28-6.36,33.02-19.12,34.99-27.85,4.3-97.93-12.47-109.91,22.09-2.6,7.49-1.71,15.23-.47,22.93Z" style="fill: #030504;"/>
  <path d="M876.03,1193.28h450.5c3.99,0,8.5-4.5,7.09-9.04-1.23-3.96-17.57-21.21-21.57-25.49-15.52-16.63-33.46-33.22-50.01-48.99-42.21-40.21-76.36-82.36-137.52-89.48-65.13-7.59-133.36-10.57-198.99-16.01-16.98-1.41-34.04-3.27-50.99-5.01-1.41-.06,4.49,15.36,4.98,17.02,12.55,42.41,18.06,89.26,18.58,133.48.19,16.49-13.18,30.85-22.08,43.52Z" style="fill: #030504;"/>
  <path d="M212.04,1293.28c-7.58,31.66-1.53,69.61,35.14,77.35,31.02,6.54,51.79-9.49,61.59-38.1,10.99-32.09-5.7-56.48-35.31-68.18l-77.44-4.05,27.99,25.5,19.03,26.04c1.82,1.14,6.89-1.4,9.52-1.56,12.44-.77,20.56,7.82,17.02,20.07s-14.67,7.98-22.88,2.77-9.88-11.06-15.7-18.3c-1.4-1.74-17.95-22.54-18.97-21.52Z" style="fill: #030504;"/>
  <path d="M1251.03,1299.28c-3.62,15.05-4.8,30.59,1.23,45.26,8.85,21.51,39.82,33.73,61.54,27.02,13.62-4.21,30.42-20.32,32.11-34.89,3.21-27.64-11.15-50.48-28.88-69.9l-82.01-4.48c14.21,15.35,31.83,29.25,45.51,44.98,3.44,3.96,7.85,9.17,9.5,14.01,29.38-23.83,20.01,31.08.03,18.46-12.81-12.18-23.7-26.35-36.23-38.77-.88-.87-.86-2.19-2.81-1.68Z" style="fill: #030504;"/>
  <path d="M295.03,1264.28c33.49,26.84,34.48,70.1,5.51,101.01-21.43,22.88-47.57,24.06-73.43,7.4-29-18.69-29.86-54.31-21.19-84.74l-22.29-19.63c-27.67,35.73-17.46,87.42,11.42,119.43,14.59,16.17,44.84,27.45,66.52,26.57,32.25-1.3,63.08-27.78,75.63-56.37,13.55-30.89,17.38-67.57-7.67-93.67h-34.5Z" style="fill: #030504;"/>
  <path d="M1366.81,1265.5l-41.79.79c13.74,15.5,24.85,33.83,27.72,54.77,2.4,17.48-3.86,32.93-15.21,46.23-29.44,34.49-83.93,11.84-95.79-27.23-5.7-18.77-3.48-35.71,2.35-54.09-5.89-2.61-14.92-13.39-20.11-15.23-3.37-1.19-7.22,7.98-8.42,10.57-20.16,43.76-.36,91.98,35.99,119.94,22.44,17.26,66.96,14.65,90.78.83,49.09-28.47,57.88-92.31,24.48-136.58Z" style="fill: #030504;"/>
  <path d="M31.03,422.28c.62-.62,14.79,1.91,17.45,2.04,9.18.44,23.96-1.58,32.05-.05,1.17.22,2.02.34,2.3,1.7,12.86,64.63,17.68,130.53,27.33,195.67,6.3,42.51,15.85,84.7,21.73,127.27,3.66,26.53,3.96,57.81,9.59,83.41,4.24,19.25,22.54,35.7,42.05,37.95,66.33,7.66,135.45,7.18,202,15l223.98,13.02c159.65,12.6,319.53,22.63,479.02,36.97,44.11-1.89,81.82-33.39,94.99-74.99,13.16-41.58,22.7-91,33.02-133.98,14.04-58.51,28-117.26,41-176,20.33-91.88,34.86-190.55,60.77-280.23,4.39-15.21,3.97-30.04-1.8-44.76-1.58-4.02-6.4-10.7-6.55-14.53-1.15-28.68,21.36-42.99,39.08-59.97,40.17-38.49,80.06-77.29,120.49-115.51.07,5.38-2.08,11.08-2.49,16.51-2.53,33.4,8.82,59.12,37.97,75.99l-66.5,60.49c-32.31,34.75-37.26,72.86-48,117-33.35,137.03-63.47,274.9-97.17,411.83-15.46,62.82-31.01,130.79-49.6,192.4-18.76,62.18-69.17,95.4-133.2,97.77l-409.01-35.99c-181.39-16.91-362.9-36.37-543.99-54.01-34.27-3.34-55.28-27.68-60.24-60.76L31.03,422.28Z" style="fill: #fdfd00;"/>
  <path d="M1153.02,1015.27c-.3-2.45,0-1.59,1.4-2.1,6.42-2.34,12.95-3.66,19.57-6.43,19.65-8.24,38.12-21.89,52.01-37.99,6.56-7.61,11.3-16.31,17.01-24.47,8.28,19.45,22.16,36.84,35.05,53.46,39.21,50.54,83.74,97.93,126.96,145.04,26.47,38.76,24.43,100.61-31.76,108.24-24.17,3.28-60.12-.05-85.78.22-362.83,3.82-726.21,4.15-1088.92-1-18.71-.27-40.98,1.75-59.09.09-11.29-1.04-17.92-18.28-16.21-28.31,1.29-7.58,10.02-13.82,16.94-16.05l1190.08-.92c12.77-2,19.63-16.36,14.48-28-2.22-5.02-20.28-24.2-25.22-29.78-31.61-35.63-70-74.53-108.62-102.38-17.12-12.35-36.89-25.7-57.9-29.61Z" style="fill: #f49578;"/>
  <path d="M1300.88,219.43c8.87,17.03,13.83,39.11-6.85,49.36-322.94,41.65-646.28,80.81-969.37,121.63-70.99,8.97-140.42,21.22-212.1,22.9-20.63.48-46.88,1.52-67.08,0-24.06-1.82-41.14-24.68-32.22-48.3,5.76-15.26,14.88-25.9,32.24-24.72,45.79,3.11,92.87,12.56,139,14.97,139.02-21.53,279.21-35.01,418.87-52.13,231.94-32,464.16-62.64,697.5-83.71Z" style="fill: #fdfd00;"/>
  <path d="M876.03,1193.28c8.9-12.67,22.27-27.03,22.08-43.52-.52-44.22-6.04-91.07-18.58-133.48-.49-1.66-6.39-17.08-4.98-17.02,16.96,1.74,34.01,3.6,50.99,5.01,65.63,5.44,133.85,8.43,198.99,16.01,61.16,7.12,95.31,49.27,137.52,89.48,16.55,15.76,34.49,32.36,50.01,48.99,3.99,4.28,20.34,21.53,21.57,25.49,1.41,4.54-3.11,9.04-7.09,9.04h-450.5Z" style="fill: #fefefe;"/>
  <path d="M1303.02,280.28l-72.48,329.01-65.79,264.21c-8.21,19.65-25.23,34.13-44.37,42.63-22.99,10.21-47.98,7.57-72.85,6.13-35.97-2.08-72.08-7.06-108.02-9.98-238.61-19.41-476.02-28.08-713.99-49.01-25.19-2.22-59.14.33-71.69-26.31-2.29-4.85-6.2-17.19-1.18-20.55,5.78-3.86,8.43-2.21,13.88-2.14,19.32.25,38.52,2.53,57.82,2.97,3.86,7.48,3.17,9.18,12.19,10.02,284.71,17.22,569.09,39.38,853.97,54.03,10.79.55,22.74,4.2,32.86-.16,11.82-5.09,17.8-18.12,21.16-29.84,46.15-188.88,87.14-378.99,128.49-569.01l29.99-2Z" style="fill: #f39478;"/>
  <path d="M1314.03,163.28l-3,11c-1.87,2.35-6.24,9.58-8.49,10.01l-125.87.13-1.47,1.53-4.17,35.33h-17v-36l-67.98,3.52-36.7,46.38-18.33-2.91,16-41.98-54.38,3.14c-1.75,3.6-7.87,3.5-12.12,3.84-19.8,1.59-39.93.85-59.88.95l-5.61,53.07-21.01,1,5.02-52.49-5.39-.38-148.63,25.88,3.87,44.85-19.86,3.14-4.94-45.57-148.12,24.02,2.99,43.5-20.91,2.01-8.05-40.95-141.99,22.99,4.91,33.92-23.92,3.08c-.22-6.47.3-13.02-.01-19.49-.17-3.62-.54-9.63-.99-13.03-.19-1.45.56-1.68-1.45-1.44l-147.53,31,4.94,21.92-21.98,4.05-6.01-26.01-104.51,19.98c-16.94-1.45-34.03-1.66-50.97-2.99-1.35-.11-6.05-.48-6.51-1.98,53.39-10.21,106.34-22.79,159.81-32.7,232.54-43.09,466.82-80.07,700.37-117.63,27.53-4.43,57.46-9.33,85.41-10.74,3.36-.17,1.78,2.18,3.75,2.05,32.98-2.08,65.88-7.91,99.11-9.04,28.55-.98,54.03,1.42,82,3.08,42.13,2.51,86.99-1.4,129.54-.04Z" style="fill: #00fbfb;"/>
  <path d="M1245.02,286.28l-306.15,576.83-36.85-3.84c66.6-139.68,135.87-278.17,200.86-418.64,13.92-30.1,28.14-60.26,41.32-90.68,7.54-17.4,15.42-34.85,20.7-53.1l80.11-10.58Z" style="fill: #f49578;"/>
  <path d="M689.07,1191.23c-1.24-7.7-2.13-15.44.47-22.93,11.98-34.56,82.06-17.78,109.91-22.09,12.76-1.97,23.52-22.71,19.12-34.99l-38.54-120.95,81.06,8.43c6.81,24.95,13.21,50.2,18.45,75.55,7.18,34.68,15.96,65.65-3.71,98.32-5.4,8.98-13.81,18-24.28,20.72-54.19-.42-108.42-1.12-162.47-2.08Z" style="fill: #f49578;"/>
  <polygon points="215.02 415.27 220.02 601.28 113.15 575.15 96.02 424.27 215.02 415.27" style="fill: #fdfdfd;"/>
  <polygon points="1152.02 300.28 1096.91 433.16 982.03 432.27 1024.16 317.41 1152.02 300.28" style="fill: #fdfdfd;"/>
  <polygon points="685.02 467.28 653.93 570.18 532.03 569.27 560.07 465.32 685.02 467.28" style="fill: #fdfdfd;"/>
  <path d="M1396.02,91.29l-70.52,59.97-148.93-3.03c-27.63-15.92-29.25-48.94,1-62.9l218.45,5.96Z" style="fill: #fdfd00;"/>
  <polygon points="643.02 608.28 616.98 710.23 499.02 705.27 524.98 605.74 643.02 608.28" style="fill: #fdfdfd;"/>
  <polygon points="1013.02 314.28 835.96 856.2 815.05 853.23 991.98 317.94 1013.02 314.28" style="fill: #00fbfb;"/>
  <polygon points="1079.02 473.28 1016.87 590.12 936.03 587.27 972.12 468.38 1079.02 473.28" style="fill: #fdfdfd;"/>
  <path d="M1366.81,1265.5c33.39,44.27,24.61,108.12-24.48,136.58-23.82,13.82-68.34,16.43-90.78-.83-36.35-27.96-56.15-76.18-35.99-119.94,1.19-2.59,5.05-11.76,8.42-10.57,5.19,1.83,14.22,12.61,20.11,15.23-5.83,18.38-8.04,35.32-2.35,54.09,11.86,39.07,66.35,61.72,95.79,27.23,11.35-13.3,17.61-28.75,15.21-46.23-2.87-20.93-13.99-39.26-27.72-54.77l41.79-.79Z" style="fill: #00fcfc;"/>
  <path d="M1221.02,72.27l-45.5-4c-12.87,1.2-23.12,13.5-28.88,24.12-8.85,16.33-.84,40.37,4.38,56.88-16.21-2.72-33.02-3.2-49.54-3.04-2.36.02-4.55,1.03-6.92,1.08-23.22.49-46.39.8-69.54,2.95,12.71-17.65,27.94-33.77,42.97-49.52,23.09-24.19,47.84-46.87,71-71,36.34-20.75,72.51,6.05,82.02,42.52Z" style="fill: #fdfd00;"/>
  <polygon points="980.02 318.28 936.93 437.18 845.03 435.27 879.16 332.41 980.02 318.28" style="fill: #fdfdfd;"/>
  <polygon points="755.02 349.28 611.96 839.21 593.05 836.23 731.96 352.91 755.02 349.28" style="fill: #00fbfb;"/>
  <polygon points="519.03 466.28 492.45 567.34 395.02 563.28 412.53 466.28 519.03 466.28" style="fill: #fdfdfd;"/>
  <path d="M295.03,1264.28h34.5c25.05,26.11,21.23,62.79,7.67,93.67-12.55,28.6-43.38,55.07-75.63,56.37-21.68.88-51.94-10.41-66.52-26.57-28.88-32.01-39.08-83.7-11.42-119.43l22.29,19.63c-8.67,30.44-7.81,66.06,21.19,84.74,25.85,16.66,52,15.47,73.43-7.4,28.96-30.92,27.98-74.17-5.51-101.01Z" style="fill: #00fcfc;"/>
  <polygon points="606.02 746.28 582.98 833.23 468.03 826.27 490.98 740.73 606.02 746.28" style="fill: #fdfdfd;"/>
  <polygon points="925.02 468.28 884.93 583.18 803.03 580.27 839.12 466.38 925.02 468.28" style="fill: #fdfdfd;"/>
  <polygon points="370.03 467.27 358.09 562.84 261.46 557.34 260.02 470.27 370.03 467.27" style="fill: #fdfdfd;"/>
  <polygon points="485.03 602.28 459.98 704.23 373.02 698.28 391.97 600.72 485.03 602.28" style="fill: #fdfdfd;"/>
  <polygon points="578.02 370.28 460.02 828.28 441.1 822.65 557.99 373.94 578.02 370.28" style="fill: #00fbfb;"/>
  <polygon points="721.02 353.28 695.93 432.18 571.03 431.27 588.07 369.33 721.02 353.28" style="fill: #fdfdfd;"/>
  <path d="M768.03,686.28c7.35-23.9,18.07-46.86,25.09-70.9l79.91,4.91-33.09,104.9c-25.84-2.12-51.66-5-77.49-6.86-1.3-.09-2.22-1.03-2.42-1.04,2.02-10.16,5.83-19.84,8.82-29.72.43-1.42-.84-1.21-.82-1.28Z" style="fill: #fdfdfd;"/>
  <polygon points="807.02 466.28 769.93 577.18 697.03 575.27 728.07 464.32 807.02 466.28" style="fill: #fdfdfd;"/>
  <path d="M212.04,1293.28c1.01-1.02,17.57,19.79,18.97,21.52,5.82,7.24,7.25,12.93,15.7,18.3s19.28,9.69,22.88-2.77-4.58-20.84-17.02-20.07c-2.62.16-7.7,2.7-9.52,1.56l-19.03-26.04-27.99-25.5,77.44,4.05c29.61,11.71,46.3,36.09,35.31,68.18-9.8,28.61-30.57,44.64-61.59,38.1-36.68-7.73-42.72-45.69-35.14-77.35Z" style="fill: #00acec;"/>
  <polygon points="351.03 599.28 334.03 698.28 258.02 693.28 260.17 597.42 351.03 599.28" style="fill: #fdfdfd;"/>
  <polygon points="220.02 619.27 223.02 720.27 136.14 706.17 123.02 630.28 220.02 619.27" style="fill: #fdfdfd;"/>
  <polygon points="836.02 757.28 804.93 848.18 724.03 845.27 750.99 750.69 836.02 757.28" style="fill: #fdfdfd;"/>
  <path d="M1510.8,14.56c34.93-4.18,59.03,20.45,61.09,54.34,3.31,54.68-74.94,64.22-91.58,14.58-9.08-27.09-3.32-64.88,30.49-68.93Z" style="fill: #00fdfd;"/>
  <path d="M1251.03,1299.28c1.96-.51,1.93.8,2.81,1.68,12.52,12.43,23.41,26.6,36.23,38.77,19.97,12.63,29.35-42.28-.03-18.46-1.65-4.84-6.05-10.06-9.5-14.01-13.69-15.73-31.31-29.63-45.51-44.98l82.01,4.48c17.73,19.42,32.09,42.26,28.88,69.9-1.69,14.57-18.49,30.68-32.11,34.89-21.72,6.71-52.69-5.51-61.54-27.02-6.03-14.66-4.86-30.21-1.23-45.26Z" style="fill: #00acec;"/>
  <polygon points="762.02 613.28 728.93 715.18 659.03 712.27 686.07 609.33 762.02 613.28" style="fill: #fcfcfc;"/>
  <path d="M250.02,818.27c-2.36.18-17.74,2.22-18.01.43l-4.04-404.85,17.48-3.45,4.57,407.86Z" style="fill: #00fafa;"/>
  <polygon points="721.03 751.28 702.02 843.27 620.02 837.27 649.1 746.35 721.03 751.28" style="fill: #fcfcfc;"/>
  <polygon points="1001.02 626.28 944.9 736.16 892.05 726.24 926.13 622.39 1001.02 626.28" style="fill: #fcfcfc;"/>
  <polygon points="410.02 391.28 342.03 822.28 328.08 821.23 391.02 393.28 410.02 391.28" style="fill: #00fafa;"/>
  <polygon points="451.03 740.28 431.98 824.23 353.02 821.28 367.95 735.7 451.03 740.28" style="fill: #fcfcfc;"/>
  <polygon points="848.02 337.28 817.93 432.18 742.03 431.27 766.07 347.33 848.02 337.28" style="fill: #fcfcfc;"/>
  <path d="M760.03,717.28c-1.19-.11-3.36-.45-4.11.6l-38,126.29-9.81-.99,151.01-508.81,12.91-1.09-110.28,366.22.27,2.76,6.01-15.99c-.02.07,1.25-.15.82,1.28-2.99,9.88-6.79,19.56-8.82,29.72Z" style="fill: #00f8f8;"/>
  <polygon points="547.02 373.28 531.98 432.23 418.02 431.28 424.02 388.28 547.02 373.28" style="fill: #fcfcfc;"/>
  <path d="M258.03,731.78c.06-.39,1.09-2.49,1.65-2.57l69.36,6.07-11,84.01-60-6.01v-81.5Z" style="fill: #fcfcfc;"/>
  <polygon points="890.02 209.28 884.02 255.27 760.03 270.28 756.13 233.38 890.02 209.28" style="fill: #fcfcfc;"/>
  <polygon points="933.02 764.28 891.86 854.11 848.02 851.27 879.03 758.28 933.02 764.28" style="fill: #fcfcfc;"/>
  <polygon points="1216.03 478.28 1185.98 608.22 1151.02 605.28 1180.07 479.33 1216.03 478.28" style="fill: #fcfcfc;"/>
  <polygon points="717.92 275.17 588.03 292.28 584.97 260.89 714.45 238.41 716.02 240.78 717.92 275.17" style="fill: #fcfcfc;"/>
  <polygon points="1138.03 651.28 1114.98 738.24 1069.02 736.27 1089.03 645.27 1138.03 651.28" style="fill: #fcfcfc;"/>
  <polygon points="222.03 736.28 222.03 804.28 155.02 801.28 149.95 755.75 222.03 736.28" style="fill: #fdfdfd;"/>
  <polygon points="1112.03 752.28 1095.02 844.29 1054.97 836.84 1054.1 832.93 1069.49 750.25 1112.03 752.28" style="fill: #fcfcfc;"/>
  <polygon points="544.92 299.17 423.03 314.28 419.96 287.89 542.45 265.41 544.02 267.78 544.92 299.17" style="fill: #fcfcfc;"/>
  <path d="M258.03,410.28c40.6-4.95,81.03-11.55,121.58-16.94,2.31-.31,1.47,1.63,1.47,3.48.03,11.06-4.69,24.04-4.04,35.47l-119,1.99v-24Z" style="fill: #fbfbfb;"/>
  <polygon points="1030.02 200.28 1017.92 238.17 924.03 247.28 927.02 207.27 1030.02 200.28" style="fill: #fcfcfc;"/>
  <path d="M1221.98,440.23c-9.93-.83-20.65,2.32-30.47,1.05-1.38-.18-1.75.55-1.45-1.46l66.95-144.54-35.03,144.95Z" style="fill: #fafafa;"/>
  <polygon points="1188.03 620.28 1181.47 645.32 1081.03 631.27 1092.66 610.19 1188.03 620.28" style="fill: #00fbfb;"/>
  <polygon points="1180.03 657.28 1158.01 740.27 1131.11 736.19 1151.06 655.32 1180.03 657.28" style="fill: #fbfbfb;"/>
  <polygon points="377.03 295.28 377.03 319.28 254.51 332.34 253.06 332.24 250.95 320.76 377.03 295.28" style="fill: #fbfbfb;"/>
  <path d="M1301.53,194.28c2.14.66,2.09,10.36.86,11.05l-118.86,14.97c-2.09.14-1.29-.02-1.5-1.48-1.14-7.88,2.15-16.5,1.01-24.53h118.5Z" style="fill: #fbfbfb;"/>
  <polygon points="1052.89 780.42 1052.77 794.52 1035.99 865.24 1019.61 863.39 1030.88 793.99 997.22 772.09 998.03 764.28 1052.89 780.42" style="fill: #00fafa;"/>
  <path d="M1020.82,801.48l-6.8,37.8-50.99-2,25.98-55.57c1.05-.87,1.79-.01,2.71.34,8.79,3.38,19.65,15.66,29.1,19.43Z" style="fill: #fcfcfc;"/>
  <polygon points="1090.02 442.28 1078.35 465.32 975.03 460.27 982.73 446.26 1090.02 442.28" style="fill: #00fafa;"/>
  <polygon points="613.03 720.28 609.45 737.34 497.02 733.28 499.03 718.29 613.03 720.28" style="fill: #00fafa;"/>
  <path d="M1148.03,766.28l-23.44,84.94-17.47-7.03c4.76-27.47,13.52-54.45,18.91-81.92l22,4.01Z" style="fill: #fbfbfb;"/>
  <polygon points="1141.02 204.29 1140.92 224.17 1066.03 233.27 1091.7 199.4 1141.02 204.29" style="fill: #fbfbfb;"/>
  <polygon points="694.03 442.28 690.41 456.34 566.03 454.27 570.03 442.28 694.03 442.28" style="fill: #00fafa;"/>
  <polygon points="649.03 584.28 646.45 596.34 530.02 593.28 532.61 579.22 649.03 584.28" style="fill: #00f8f8;"/>
  <polygon points="374.03 444.27 375.03 457.28 259.02 458.28 259.02 445.27 374.03 444.27" style="fill: #00f8f8;"/>
  <polygon points="393.03 576.28 490.04 577.79 486.45 594.34 393.03 590.28 393.03 576.28" style="fill: #00fafa;"/>
  <polygon points="882.03 593.28 877.41 611.34 800.02 607.28 802.03 591.29 882.03 593.28" style="fill: #00fafa;"/>
  <polygon points="527.02 444.29 522.36 455.32 413.02 456.28 414.02 443.27 527.02 444.29" style="fill: #00f8f8;"/>
  <polygon points="258.03 570.28 355.03 574.28 353.03 586.28 258.03 586.28 258.03 570.28" style="fill: #00fafa;"/>
  <polygon points="457.02 715.28 452.42 731.34 369.97 724.72 372.04 710.29 457.02 715.28" style="fill: #00fafa;"/>
  <polygon points="1012.02 602.28 1002.32 619.3 930.02 612.27 934.64 598.22 1012.02 602.28" style="fill: #00fafa;"/>
  <polygon points="768.03 588.28 766.02 603.27 692.03 600.27 696.64 585.22 768.03 588.28" style="fill: #00f8f8;"/>
  <polygon points="839.03 733.28 836.46 749.32 758.95 739.64 761.63 729.22 839.03 733.28" style="fill: #00f8f8;"/>
  <polygon points="1160.03 473.28 1167.92 454.9 1169.49 454.21 1221.03 455.28 1218.03 473.28 1160.03 473.28" style="fill: #00fbfb;"/>
  <polygon points="727.03 727.28 723.41 741.34 654.02 737.27 658.64 723.22 727.03 727.28" style="fill: #00f8f8;"/>
  <path d="M1045.98,733.23c-.78.75-19.64-1.13-21.58-1.85-1.05-.39-1.76.49-1.28-1.5l39.9-74.61-17.04,77.95Z" style="fill: #f8f8f8;"/>
  <polygon points="817.02 443.28 813.42 456.34 736.02 453.27 738.64 442.22 817.02 443.28" style="fill: #00f8f8;"/>
  <polygon points="332.03 709.28 330.01 724.27 258.96 716.66 259.02 706.27 332.03 709.28" style="fill: #00f8f8;"/>
  <polygon points="932.02 447.28 928.41 458.34 844.03 455.27 847.68 445.23 932.02 447.28" style="fill: #00f8f8;"/>
  <polygon points="1115.03 597.28 1096.03 597.28 1135.02 515.28 1115.03 597.28" style="fill: #f8f8f8;"/>
  <path d="M208.02,323.27l2.59,16.07-1.26.76c-6.95.19-13.91,3.37-20.83,3.25-11.97-.21-27.68-3.59-40-5.06-2.13-.26-4.35.12-6.49-.02-.5-3.04.78-1.59,2.43-2.02,20.65-5.35,42.71-8.19,63.56-12.99Z" style="fill: #f8f8f8;"/>
  <path d="M939.03,743.29c.6.7-4.9,13.93-5.65,14.08l-48.35-9.61,5.62-12.55,48.38,8.08Z" style="fill: #00f8f8;"/>
  <path d="M1156.93,752.38l.09,9.91c-3.8-.63-28.63-3.93-29.04-5.67l.05-10.33,28.9,6.09Z" style="fill: #00f8f8;"/>
  <path d="M1314.03,163.28c1.14.04,5.99-.87,4.99,1.49-.4.95-6.62,7.79-7.99,9.51l3-11Z" style="fill: #f8f8f8;"/>
</svg>