<?xml version="1.0" encoding="UTF-8"?>
<svg id="Filled_Line" xmlns="http://www.w3.org/2000/svg" version="1.1" viewBox="0 0 52 58">
  <!-- Generator: Adobe Illustrator 29.2.1, SVG Export Plug-In . SVG Version: 2.1.0 Build 116)  -->
  <defs>
    <style>
      .st0 {
        fill: #d3dce5;
      }

      .st1 {
        fill: #ecc865;
      }

      .st2 {
        fill: #536882;
      }

      .st3 {
        fill: #737e9b;
      }

      .st4 {
        fill: #1a2c3d;
      }
    </style>
  </defs>
  <path class="st1" d="M31.8,48.6l-5.1-3.2c-.2,0-.3-.3-.2-.5l2.5-5c.2-.3-.1-.6-.5-.5l-5.9,2c-.2,0-.4,0-.5-.3l-1.2-4.8c0-.3-.4-.4-.6-.2l-4.1,4.5c0,0-.2.1-.3.1l-6.1-.9c-.4,0-.5.5-.2.7l5.1,4.6c.2.2.2.5,0,.6l-4.9,4.4c-.3.2-.2.7.2.7l5.6.8c.2,0,.4.2.4.4v4.5c0,.3.4.5.6.3l3.8-3.5c.1-.1.3-.2.5,0l5.1,3.5c.3.2.6,0,.6-.4l-.6-5.3c0-.2,0-.4.3-.4l5.5-1.5c.3,0,.4-.5,0-.7h0Z"/>
  <path class="st0" d="M40.7,15.1L27.9,2.3c-1.6-1.6-4.3-1.6-6,0L2.8,21.4c-1.6,1.6-1.6,4.3,0,6l12.8,12.8c.8.8,2.1.8,3,0l22.1-22.1c.8-.8.8-2.1,0-3h0Z"/>
  <path class="st3" d="M18.4,10.2l-1.2-3.2-9.5,9.5,3.2,1.2c.5.2,1,0,1.4-.3l5.9-5.9c.4-.4.5-.9.3-1.4Z"/>
  <path class="st3" d="M50.3,19.3l-.6-.6-5.9-1.7c-1-.2-2,0-2.8.8l-22.8,22.8c-.7.7-1,1.8-.8,2.8l1.7,5.9.6.6c1,1,2.5,1,3.5,0l27-27c1-1,1-2.5,0-3.5h0Z"/>
  <path class="st2" d="M50.3,19.3l-.6-.6h-.2s-30.3,30.3-30.3,30.3v.2s.6.6.6.6c1,1,2.5,1,3.5,0l26.9-27c1-1,1-2.5,0-3.5Z"/>
  <path class="st4" d="M52,21c0-.9-.4-1.8-1-2.5l-.6-.6c-.1-.1-.3-.2-.4-.3l-5.9-1.7s0,0,0,0c-.6-.1-1.2-.1-1.8,0-.1-.6-.4-1.1-.8-1.6L28.6,1.6c-2-2-5.3-2-7.4,0L2.1,20.7c-1,1-1.5,2.3-1.5,3.7s.5,2.7,1.5,3.7l11.3,11.3-3.4-.5c0,0-.1,0-.2,0-.6,0-1.1.4-1.2,1-.2.5,0,1.1.4,1.5l4.6,4.1-4.4,3.9c-.4.3-.6.9-.5,1.4.1.6.6,1,1.2,1l5.1.8v4c0,.6.3,1.1.8,1.3.2,0,.4.1.6.1.4,0,.7-.1.9-.4l3.5-3.1,4.6,3.2c.5.3,1.1.3,1.5,0,.5-.3.7-.9.6-1.3l-.5-4.8,5-1.3c.6-.1,1-.6,1-1.2,0-.6-.2-1.1-.7-1.3l-3.4-2.1,22.1-22.1c.7-.7,1-1.5,1-2.5h0ZM43.6,17.9l3.5,1-27.5,27.5-1-3.4c-.1-.7,0-1.3.5-1.8l22.8-22.8c.5-.5,1.1-.7,1.8-.5h0ZM17.5,10.8l-6.2,6.2-1.9-.8,7.4-7.4s.8,1.9.8,1.9ZM2.6,24.4c0-.9.3-1.7.9-2.3l4.3-4.3,3.3,1.3c.1,0,.2,0,.4,0,.3,0,.5-.1.7-.3l7.1-7.1c.3-.3.4-.7.2-1.1l-1.3-3.3,4.3-4.3c1.2-1.2,3.3-1.2,4.5,0l12.8,12.8c.4.4.4,1.1,0,1.6l-22.1,22.1c-.4.4-1.1.4-1.6,0L3.5,26.7c-.6-.6-.9-1.4-.9-2.3h0ZM30.1,48.7l-4.1,1.1c-.7.2-1.2.9-1,1.5l.5,4-3.9-2.7c-.5-.4-1.3-.3-1.7.1l-2.8,2.5v-3.1c0-.7-.5-1.3-1.2-1.4l-4.3-.6,3.9-3.5c.3-.2.5-.6.5-1,0-.5-.2-.9-.5-1.1l-3.6-3.2,3.9.6c0,0,.1,0,.2,0,.1,0,.2,0,.3,0,0,0,.1,0,.2,0-.1.6-.1,1.2,0,1.8l1.7,5.9c0,.2.1.3.2.4l.6.6c.7.7,1.5,1,2.5,1s1.8-.4,2.5-1l3.4-3.4,2.6,1.7h0ZM49.6,22.1l-27,27c-.6.6-1.5.6-2.1,0l-.4-.4,29-29,.4.4c.3.3.4.6.4,1s-.2.8-.4,1ZM1,17.7c-.6,0-1-.5-1-1V7.1c0-.6.4-1,1-1s1,.4,1,1v9.6c0,.5-.4,1-1,1ZM8.7,9.4v2.2c0,.6-.4,1-1,1s-1-.4-1-1v-2.2c0-.6.4-1,1-1s1,.4,1,1ZM6.7,5.8V1C6.7.5,7.1,0,7.7,0s1,.5,1,1v4.7c0,.6-.4,1-1,1s-1-.4-1-1ZM13.2,5.3V1c0-.5.4-1,1-1h0c.5,0,1,.5,1,1v4.3c0,.6-.4,1-1,1h0c-.5,0-1-.4-1-1ZM46.4,14v-6.9c0-.6.5-1,1-1s1,.4,1,1v6.9c0,.5-.5,1-1,1s-1-.5-1-1ZM39.7,9.4v-1.2c0-.6.5-1,1-1s1,.4,1,1v1.2c0,.6-.5,1-1,1s-1-.4-1-1ZM39.7,4.5V1c0-.5.5-1,1-1s1,.5,1,1v3.4c0,.6-.5,1-1,1s-1-.4-1-1ZM33.2,3.4V1.1c0-.5.5-1,1-1h0c.5,0,1,.5,1,1v2.4c0,.6-.5,1-1,1h0c-.5,0-1-.4-1-1Z"/>
</svg>