<?xml version="1.0" encoding="UTF-8"?>
<!DOCTYPE svg PUBLIC "-//W3C//DTD SVG 1.1//EN" "http://www.w3.org/Graphics/SVG/1.1/DTD/svg11.dtd">
<!-- Creator: CorelDRAW -->
<svg xmlns="http://www.w3.org/2000/svg" xml:space="preserve" width="1.70666in" height="1.70666in" version="1.1" style="shape-rendering:geometricPrecision; text-rendering:geometricPrecision; image-rendering:optimizeQuality; fill-rule:evenodd; clip-rule:evenodd"
viewBox="0 0 1707 1707"
 xmlns:xlink="http://www.w3.org/1999/xlink">
 <defs>
  <style type="text/css">
   <![CDATA[
    .fil7 {fill:#00CCFF}
    .fil8 {fill:#27D389}
    .fil0 {fill:#37414F}
    .fil3 {fill:#6D747F}
    .fil2 {fill:#7C828C}
    .fil6 {fill:#FC6067}
    .fil4 {fill:#FF4755}
    .fil9 {fill:#FFB0B5}
    .fil5 {fill:#FFC738}
    .fil1 {fill:url(#id0)}
   ]]>
  </style>
  <linearGradient id="id0" gradientUnits="userSpaceOnUse" x1="1281.43" y1="643.142" x2="188.618" y2="917.354">
   <stop offset="0" style="stop-opacity:1; stop-color:white"/>
   <stop offset="1" style="stop-opacity:1; stop-color:#E6E6E6"/>
  </linearGradient>
 </defs>
 <g id="Layer_x0020_1">
  <metadata id="CorelCorpID_0Corel-Layer"/>
  <path class="fil0" d="M1156 1707l-842 0c-80,0 -145,-65 -145,-145l0 -1417c0,-80 65,-145 145,-145l842 0c80,0 145,65 145,145l0 255c0,11 -9,20 -20,20l-693 0c-36,0 -65,30 -65,66l0 348c0,36 29,65 65,65l111 0c5,0 10,2 14,6l90 90 89 -90c4,-4 9,-6 14,-6l375 0c11,0 20,9 20,20l0 643c0,80 -65,145 -145,145z"/>
  <path class="fil1" d="M1235 138c0,-39 -35,-71 -79,-71l-842 0c-44,0 -79,32 -79,71l0 1285c0,39 35,71 79,71l842 0c43,0 78,-32 78,-71 0,-589 1,-882 1,-1285z"/>
  <path class="fil0" d="M526 0l418 0 0 113c0,35 -29,64 -63,64l-291 0c-35,0 -63,-29 -63,-63l-1 -114z"/>
  <path class="fil2" d="M831 108l-191 0c-11,0 -20,-9 -20,-20 0,-11 9,-20 20,-20l191 0c11,0 20,9 20,20 0,11 -9,20 -20,20z"/>
  <g id="_530740368">
   <path class="fil3" d="M486 1620l-155 0c-11,0 -20,-9 -20,-20 0,-11 9,-20 20,-20l155 0c11,0 20,9 20,20 0,11 -9,20 -20,20z"/>
   <path class="fil3" d="M812 1620l-154 0c-11,0 -20,-9 -20,-20 0,-11 9,-20 20,-20l154 0c11,0 20,9 20,20 0,11 -9,20 -20,20z"/>
   <path class="fil3" d="M1139 1620l-155 0c-11,0 -20,-9 -20,-20 0,-11 9,-20 20,-20l155 0c11,0 20,9 20,20 0,11 -9,20 -20,20z"/>
  </g>
  <path class="fil4" d="M803 1043c-5,0 -10,-2 -14,-6l-98 -98 -102 0c-58,0 -105,-47 -105,-105l0 -348c-1,-28 10,-55 30,-75 20,-20 46,-31 75,-31l844 0c58,0 105,48 105,106l0 348c0,58 -47,105 -105,105l-518 0 -98 98c-4,4 -9,6 -14,6z"/>
  <path class="fil5" d="M682 1326l-124 0c-11,0 -20,-9 -20,-20l0 -183c0,-11 9,-20 20,-20l124 0c11,0 20,9 20,20l0 183c0,11 -9,20 -20,20z"/>
  <path class="fil6" d="M912 1326l-124 0c-11,0 -20,-9 -20,-20l0 -183c0,-11 9,-20 20,-20l124 0c11,0 20,9 20,20l0 183c0,11 -9,20 -20,20z"/>
  <path class="fil7" d="M1143 1326l-124 0c-11,0 -20,-9 -20,-20l0 -183c0,-11 9,-20 20,-20l124 0c11,0 20,9 20,20l0 183c0,11 -9,20 -20,20z"/>
  <path class="fil8" d="M451 1326l-124 0c-11,0 -20,-9 -20,-20l0 -183c0,-11 9,-20 20,-20l124 0c11,0 20,9 20,20l0 183c0,11 -9,20 -20,20z"/>
  <path class="fil9" d="M771 812c-11,0 -20,-9 -20,-20l0 -265c0,-11 9,-20 20,-20 11,0 20,9 20,20l0 265c0,11 -9,20 -20,20zm-179 0c-11,0 -20,-9 -20,-20l0 -265c0,-11 9,-20 20,-20 11,0 20,9 20,20l0 265c0,11 -9,20 -20,20z"/>
  <path class="fil9" d="M771 680l-179 0c-11,0 -20,-9 -20,-20 0,-11 9,-20 20,-20l179 0c11,0 20,9 20,20 0,11 -9,20 -20,20z"/>
  <path class="fil9" d="M994 812l-151 0c-11,0 -20,-9 -20,-20l0 -265c0,-11 9,-20 20,-20l151 0c11,0 20,9 20,20 0,11 -9,20 -20,20l-131 0 0 225 131 0c11,0 20,9 20,20 0,11 -9,20 -20,20z"/>
  <path class="fil9" d="M968 680l-125 0c-11,0 -20,-9 -20,-20 0,-11 9,-20 20,-20l125 0c11,0 20,9 20,20 0,11 -9,20 -20,20z"/>
  <path class="fil9" d="M1353 700l-66 0c-11,0 -20,-9 -20,-20l0 -152c0,-11 9,-20 20,-20l66 0c62,0 95,48 95,96 0,25 -8,48 -24,66 -12,13 -34,30 -71,30zm-46 -40l46 0c17,0 31,-6 41,-17 9,-10 14,-24 14,-39 0,-28 -17,-56 -55,-56l-46 0 0 112 0 0z"/>
  <path class="fil9" d="M1287 812c-11,0 -20,-9 -20,-20l0 -112c0,-11 9,-20 20,-20 11,0 20,9 20,20l0 112c0,11 -9,20 -20,20z"/>
  <path class="fil9" d="M1214 812l-148 0c-11,0 -20,-9 -20,-20l0 -265c0,-11 9,-20 20,-20 11,0 20,9 20,20l0 245 128 0c11,0 20,9 20,20 0,11 -9,20 -20,20z"/>
 </g>
</svg>
