<?xml version="1.0" encoding="UTF-8"?>
<svg id="Layer_1" xmlns="http://www.w3.org/2000/svg" version="1.1" viewBox="0 0 492.3 494">
  <!-- Generator: Adobe Illustrator 29.2.1, SVG Export Plug-In . SVG Version: 2.1.0 Build 116)  -->
  <defs>
    <style>
      .st0 {
        fill: #4c7ca4;
      }

      .st1 {
        fill: #fff;
      }

      .st2 {
        fill: #505b72;
      }

      .st3 {
        fill: #70f3c0;
      }

      .st4 {
        fill: #030403;
      }

      .st5 {
        fill: #7c849a;
      }

      .st6 {
        fill: #436d90;
      }

      .st7 {
        fill: #edeff1;
      }

      .st8 {
        fill: #f97871;
      }
    </style>
  </defs>
  <path class="st5" d="M102.3,28.6c13.8,0,25.1,11.3,25.1,25.1s-11.3,25.1-25.1,25.1-25.1-11.3-25.1-25.1,11.3-25.1,25.1-25.1h0ZM102.3,93.4c21.9,0,39.7-17.8,39.7-39.7S124.2,14,102.3,14s-39.7,17.8-39.7,39.7,17.8,39.7,39.7,39.7h0Z"/>
  <rect class="st8" x="84.1" y="169.9" width="36.2" height="46.3"/>
  <path class="st5" d="M329.8,276.3c-1.9-.2-3.9-.9-5.6-2.1l-39-26.3v22.3c0,3-.6,5.9-1.6,8.5h46.2v-2.4h0Z"/>
  <polygon class="st6" points="329.8 125 285.3 155.1 285.3 230.9 329.8 261.1 329.8 125"/>
  <path class="st2" d="M102.3,64.8c6.1,0,11.1-5,11.1-11.1s-5-11.1-11.1-11.1-11.1,5-11.1,11.1,5,11.1,11.1,11.1h0Z"/>
  <path class="st5" d="M203.2,59.7h.9c3.9,0,7,3.1,7,7s-3.1,7-7,7h-.9c-3.9,0-7-3.1-7-7s3.2-7,7-7h0ZM203.6,93.4c14.7,0,26.7-11.9,26.7-26.6s-12-26.6-26.7-26.6-26.6,12-26.6,26.6,12,26.6,26.6,26.6h0Z"/>
  <path class="st3" d="M296.5,323.4c0-3.2,1.8-6.2,4.6-7.9,2.8-1.6,6.1-1.6,9,0l60.7,35.1c2.8,1.6,4.5,4.6,4.5,7.8s-1.6,6.1-4.4,7.8c0,0,0,0-.1,0l-60.7,35c-1.4.8-3,1.2-4.5,1.2s-3.1-.4-4.5-1.2c0,0-.1,0-.2-.1-2.7-1.7-4.4-4.6-4.4-7.8v-70.1h0ZM262.7,292.7h-67.2v131.5h282.9v-131.5h-215.7,0Z"/>
  <polygon class="st1" points="310.4 332 310.4 384.9 356.3 358.5 310.4 332"/>
  <rect class="st5" x="343.9" y="236.9" width="60.2" height="41.8"/>
  <rect class="st5" x="269.7" y="438.2" width="60.2" height="41.8"/>
  <path class="st5" d="M418.1,480h42.7c9.6,0,17.5-7.8,17.5-17.5v-24.3h-60.2v41.8h0Z"/>
  <rect class="st5" x="343.9" y="438.2" width="60.2" height="41.8"/>
  <path class="st5" d="M195.4,462.5c0,9.6,7.8,17.5,17.5,17.5h42.7v-41.8h-60.2v24.3h0Z"/>
  <path class="st5" d="M478.3,254.4c0-9.6-7.8-17.5-17.5-17.5h-42.7v41.8h60.2v-24.3h0Z"/>
  <path class="st5" d="M83.9,358.2c18,0,32.6,14.7,32.6,32.6s-14.7,32.6-32.6,32.6-32.6-14.6-32.6-32.6,14.6-32.6,32.6-32.6h0ZM28.6,399.6c2.5.6,4.5,2.5,5.2,5,1.2,4.2,2.8,8.2,4.9,11.8,1.3,2.3,1.2,5-.1,7.2l-7.6,12c-.2.3-.3.5-.4.7l7.7,7.7c.2,0,.4-.2.7-.4l12-7.6c2.2-1.4,5-1.4,7.2-.1,3.7,2.1,7.6,3.8,11.8,4.9,2.5.7,4.4,2.7,5,5.2l3.1,13.9c0,.3.1.5.2.7h11c0-.2.2-.4.2-.7l3.1-13.8c.6-2.5,2.5-4.5,5-5.2,4.1-1.1,8.1-2.8,11.8-4.9,2.3-1.3,5-1.2,7.2.1l12,7.6c.3.2.5.3.7.4l7.7-7.7c0-.2-.2-.4-.4-.7l-7.6-12c-1.4-2.2-1.4-5-.1-7.2,2.1-3.7,3.8-7.7,5-11.8.7-2.5,2.6-4.4,5.2-5l13.9-3.1c.3,0,.5-.1.7-.2v-10.9c-.2,0-.4-.1-.8-.2l-13.8-3.1c-2.5-.6-4.5-2.5-5.2-5-1.2-4.2-2.8-8.2-5-11.8-1.2-2.2-1.2-5,.1-7.2l7.6-12c.2-.3.3-.5.4-.7l-7.7-7.7c-.2,0-.5.2-.7.4l-12,7.6c-2.2,1.4-4.9,1.4-7.1.2-3.8-2.2-7.8-3.8-11.9-4.9-2.5-.7-4.4-2.7-5-5.2l-3.1-13.9c0-.3-.1-.5-.2-.7h-11c0,.2-.1.5-.2.8l-3.1,13.8c-.6,2.5-2.5,4.5-5,5.2-4.1,1.1-8.1,2.8-11.8,4.9-2.3,1.3-5,1.2-7.2-.2l-12-7.6c-.3-.2-.5-.3-.7-.4l-7.7,7.7c.1.2.2.4.4.7l7.6,12c1.4,2.2,1.4,5,.1,7.2-2.1,3.7-3.8,7.7-4.9,11.8-.7,2.5-2.7,4.4-5.2,5l-13.9,3.1c-.3,0-.5.1-.7.2v10.9c.2,0,.4.2.8.3l13.8,3.1h0Z"/>
  <path class="st0" d="M39.5,132.3c0-3.9,3.1-7,7-7h199.9c3.9,0,7,3.1,7,7v121.5c0,3.9-3.1,7-7,7H46.5c-3.9,0-7-3.1-7-7v-121.5h0ZM30.1,278.7h232.7c4.7,0,8.5-3.8,8.5-8.5v-35.5h0v-118.8c0-4.7-3.8-8.5-8.5-8.5H30.1c-4.7,0-8.5,3.8-8.5,8.5v154.3c0,4.7,3.8,8.5,8.5,8.5h0Z"/>
  <path class="st7" d="M215.8,186.4h-52c-3.9,0-7-3.1-7-7s3.1-7,7-7h52c3.9,0,7,3.1,7,7s-3.1,7-7,7h0ZM215.8,213.7h-19.4c-3.9,0-7-3.1-7-7s3.1-7,7-7h19.4c3.9,0,7,3.1,7,7s-3.1,7-7,7h0ZM134.3,223.2c0,3.9-3.1,7-7,7h-50.2c-3.9,0-7-3.1-7-7v-60.3c0-3.9,3.1-7,7-7h50.2c3.9,0,7,3.1,7,7v60.3ZM239.4,139.3H53.5v107.5h185.9v-107.5h0Z"/>
  <path class="st4" d="M215.8,199.7h-19.4c-3.9,0-7,3.1-7,7s3.1,7,7,7h19.4c3.9,0,7-3.1,7-7s-3.1-7-7-7h0Z"/>
  <path class="st4" d="M120.3,216.2h-36.2v-46.3h36.2v46.3ZM127.3,155.9h-50.2c-3.9,0-7,3.1-7,7v60.3c0,3.9,3.1,7,7,7h50.2c3.9,0,7-3.1,7-7v-60.3c0-3.9-3.1-7-7-7h0Z"/>
  <path class="st4" d="M215.8,172.4h-52c-3.9,0-7,3.1-7,7s3.1,7,7,7h52c3.9,0,7-3.1,7-7s-3.1-7-7-7h0Z"/>
  <path class="st4" d="M53.5,139.3h185.9v107.5H53.5v-107.5h0ZM46.5,260.8h199.9c3.9,0,7-3.1,7-7v-121.5c0-3.9-3.1-7-7-7H46.5c-3.9,0-7,3.1-7,7v121.5c0,3.9,3.1,7,7,7h0Z"/>
  <path class="st4" d="M203.2,73.7h.9c3.9,0,7-3.1,7-7s-3.1-7-7-7h-.9c-3.9,0-7,3.1-7,7s3.2,7,7,7h0Z"/>
  <path class="st4" d="M310.4,332l45.8,26.4-45.8,26.4v-52.9h0ZM300.9,401.2c0,0,.1,0,.2.1,1.4.8,2.9,1.2,4.5,1.2s3.1-.4,4.5-1.2l60.7-35c0,0,0,0,.1,0,2.7-1.7,4.4-4.6,4.4-7.8s-1.7-6.3-4.5-7.8l-60.7-35.1c-2.8-1.6-6.2-1.6-9,0-2.8,1.6-4.6,4.6-4.6,7.9v70.1c0,3.2,1.7,6.1,4.4,7.8h0Z"/>
  <path class="st4" d="M102.3,42.6c6.1,0,11.1,5,11.1,11.1s-5,11.1-11.1,11.1-11.1-5-11.1-11.1,5-11.1,11.1-11.1h0ZM102.3,78.8c13.8,0,25.1-11.3,25.1-25.1s-11.3-25.1-25.1-25.1-25.1,11.3-25.1,25.1,11.3,25.1,25.1,25.1h0Z"/>
  <path class="st4" d="M83.9,372.2c10.3,0,18.7,8.4,18.7,18.6s-8.4,18.6-18.7,18.6-18.6-8.4-18.6-18.6,8.4-18.6,18.6-18.6h0ZM83.9,423.4c18,0,32.6-14.6,32.6-32.6s-14.7-32.6-32.6-32.6-32.6,14.7-32.6,32.6,14.6,32.6,32.6,32.6h0Z"/>
  <path class="st4" d="M14,385.3c.2,0,.4-.1.7-.2l13.9-3.1c2.5-.6,4.5-2.5,5.2-5,1.2-4.2,2.8-8.2,4.9-11.8,1.3-2.2,1.2-5-.1-7.2l-7.6-12c-.2-.3-.3-.5-.4-.7l7.7-7.7c.2,0,.4.2.7.4l12,7.6c2.2,1.4,4.9,1.4,7.2.2,3.8-2.2,7.8-3.8,11.8-4.9,2.5-.7,4.4-2.7,5-5.2l3.1-13.8c0-.3.1-.6.2-.8h11c0,.2.2.4.2.7l3.1,13.9c.6,2.5,2.5,4.5,5,5.2,4.1,1.1,8.1,2.8,11.9,4.9,2.2,1.3,5,1.2,7.1-.2l12-7.6c.2-.2.5-.3.7-.4l7.7,7.7c0,.2-.2.4-.4.7l-7.6,12c-1.4,2.2-1.4,5-.1,7.2,2.1,3.7,3.8,7.7,5,11.8.7,2.5,2.6,4.4,5.2,5l13.8,3.1c.3,0,.6.1.8.2v10.9c-.2,0-.4.2-.7.2l-13.9,3.1c-2.5.6-4.5,2.5-5.2,5-1.2,4.2-2.8,8.2-5,11.8-1.2,2.3-1.2,5,.1,7.2l7.6,12c.2.3.3.5.4.7l-7.7,7.7c-.2,0-.4-.2-.7-.4l-12-7.6c-2.2-1.4-4.9-1.4-7.2-.1-3.7,2.1-7.7,3.8-11.8,4.9-2.5.7-4.4,2.7-5,5.2l-3.1,13.8c0,.3-.1.6-.2.7h-11c0-.2-.1-.4-.2-.7l-3.1-13.9c-.6-2.5-2.5-4.5-5-5.2-4.2-1.1-8.1-2.8-11.8-4.9-2.2-1.3-5-1.2-7.2.1l-12,7.6c-.3.2-.5.3-.7.4l-7.7-7.7c.1-.2.2-.4.4-.7l7.6-12c1.4-2.2,1.4-5,.1-7.2-2.1-3.7-3.8-7.7-4.9-11.8-.7-2.5-2.7-4.4-5.2-5l-13.8-3.1c-.3,0-.6-.2-.8-.3v-10.9h0ZM21.5,412.4c.9,2.5,1.9,4.9,3,7.2l-5.4,8.6c-3.9,6.2-3.5,13,1,17.4l9,9c4.4,4.5,11.3,4.8,17.4,1l8.6-5.4c2.4,1.2,4.7,2.2,7.2,3l2.3,10c1.6,7.1,6.7,11.6,13,11.6h12.7c6.3,0,11.4-4.5,13-11.6l2.3-9.9c2.5-.9,4.9-1.8,7.3-3l8.6,5.4c6.1,3.8,12.9,3.5,17.4-1l8.9-9c4.5-4.5,4.8-11.3,1-17.4l-5.4-8.6c1.1-2.4,2.2-4.8,3-7.2l9.9-2.3c7.1-1.6,11.6-6.7,11.6-13v-12.7c0-6.3-4.6-11.4-11.7-13l-9.9-2.2c-.9-2.5-1.9-4.9-3-7.2l5.4-8.6c3.9-6.2,3.5-13-1-17.4l-8.9-9c-4.5-4.5-11.3-4.8-17.5-1l-8.6,5.4c-2.3-1.1-4.8-2.1-7.2-3l-2.3-9.9c-1.6-7.1-6.7-11.6-13-11.6h-12.7c-6.3,0-11.4,4.6-13,11.6l-2.3,9.9c-2.4.9-4.9,1.8-7.2,3l-8.6-5.4c-6.1-3.9-13-3.5-17.4,1l-9,9c-4.4,4.5-4.8,11.3-1,17.4l5.4,8.6c-1.1,2.4-2.2,4.8-3,7.2l-9.9,2.3c-7.1,1.6-11.6,6.7-11.6,13v12.7c0,6.3,4.6,11.4,11.6,13l9.9,2.3h0Z"/>
  <path class="st4" d="M21.6,115.9c0-4.7,3.8-8.5,8.5-8.5h232.7c4.7,0,8.5,3.8,8.5,8.5v118.8h0v35.5c0,4.7-3.8,8.5-8.5,8.5H30.1c-4.7,0-8.5-3.8-8.5-8.5V115.9ZM62.7,53.7c0-21.9,17.8-39.7,39.7-39.7s39.7,17.8,39.7,39.7-17.8,39.7-39.7,39.7-39.7-17.8-39.7-39.7h0ZM180.7,33.2c-10.7,7.3-17.7,19.6-17.7,33.5s3.8,19.5,10,26.6h-34.5c10.8-9.8,17.5-24,17.5-39.7s-3.2-20.8-8.7-29.3l33.4,8.8h0ZM203.6,40.1c14.7,0,26.7,12,26.7,26.6s-12,26.6-26.7,26.6-26.6-11.9-26.6-26.6,12-26.6,26.6-26.6h0ZM336.9,292.7h141.4v131.5H195.4v-131.5h141.4ZM285.3,270.2v-22.3l39,26.3c1.7,1.2,3.7,1.9,5.6,2.1v2.4h-46.2c1.1-2.6,1.6-5.5,1.6-8.5h0ZM285.3,155.1l44.6-30.1v136.1l-44.6-30.2v-75.8h0ZM343.9,263.8v-26.9h60.2v41.8h-60.2v-14.9ZM418.1,236.9h42.7c9.6,0,17.5,7.9,17.5,17.5v24.3h-60.2v-41.8h0ZM478.3,462.5c0,9.6-7.8,17.5-17.5,17.5h-42.7v-41.8h60.2v24.3h0ZM404.1,480h-60.2v-41.8h60.2v41.8ZM329.8,480h-60.2v-41.8h60.2v41.8ZM255.7,480h-42.7c-9.6,0-17.5-7.8-17.5-17.5v-24.3h60.2v41.8h0ZM30.1,292.7h151.3v169.8c0,17.3,14.1,31.5,31.5,31.5h247.9c17.3,0,31.5-14.1,31.5-31.5v-208.1c0-17.3-14.1-31.5-31.5-31.5h-117v-100.6c0-4.7-2.5-8.9-6.7-11.1-4.2-2.2-9-1.9-12.9.7l-39,26.3v-22.4c0-12.4-10.1-22.5-22.5-22.5h-28.5c6.2-7.1,10-16.4,10-26.6,0-19-13.1-35-30.8-39.4L115.1,1.5c-.3,0-.5-.1-.8-.1-3.9-.9-7.9-1.4-12-1.4-29.6,0-53.7,24.1-53.7,53.7s6.8,29.9,17.5,39.7H30.1c-12.4,0-22.5,10.1-22.5,22.5v154.3c0,12.4,10.1,22.5,22.5,22.5h0Z"/>
</svg>