<?xml version="1.0" encoding="UTF-8"?>
<svg id="Layer_1" xmlns="http://www.w3.org/2000/svg" version="1.1" xmlns:xlink="http://www.w3.org/1999/xlink" viewBox="0 0 504.1 504">
  <!-- Generator: Adobe Illustrator 29.2.1, SVG Export Plug-In . SVG Version: 2.1.0 Build 116)  -->
  <defs>
    <style>
      .st0 {
        fill: url(#linear-gradient);
      }
    </style>
    <linearGradient id="linear-gradient" x1="252.1" y1="2" x2="252.1" y2="506" gradientTransform="translate(0 506) scale(1 -1)" gradientUnits="userSpaceOnUse">
      <stop offset="0" stop-color="#9345ff"/>
      <stop offset="0" stop-color="#8e4aff"/>
      <stop offset="1" stop-color="#00c1ff"/>
    </linearGradient>
  </defs>
  <path class="st0" d="M0,257V39.5C0,22.7,13.7,9,30.5,9h241.7c16.8,0,30.5,13.7,30.5,30.5v44.8c0,3.9-3.1,7-7,7s-7-3.1-7-7v-44.8c0-9.1-7.4-16.5-16.5-16.5H30.5c-9.1,0-16.5,7.4-16.5,16.5v217.5c0,9.1,7.4,16.5,16.5,16.5h241.7c9.1,0,16.5-7.4,16.5-16.5v-74.7c0-3.9,3.1-7,7-7s7,3.1,7,7v74.7c0,16.8-13.7,30.5-30.5,30.5h-113.8v26.5h25.6c2.5,0,4.8,1.3,6.1,3.5l9.5,16.4c1.9,3.3.8,7.6-2.6,9.6-1.1.6-2.3.9-3.5.9-2.4,0-4.8-1.3-6.1-3.5l-7.5-12.9h-57.2l-7.5,12.9c-1.9,3.3-6.2,4.5-9.6,2.6-3.3-1.9-4.5-6.2-2.6-9.6l9.5-16.4c1.2-2.2,3.6-3.5,6.1-3.5h25.6v-26.5H30.5C13.7,287.5,0,273.8,0,257h0ZM355.8,44.9c.9-27.3,18.2-44.9,44.2-44.9s43.3,17.6,44.2,44.9c.9,26.8-15.6,56.9-43.8,58.7-.2,0-.3,0-.5,0s-.3,0-.5,0c-28.2-1.8-44.6-31.9-43.8-58.7ZM400,89.6c18.9-1.6,30.9-24,30.2-44.3-.2-7.3-3.1-31.3-30.2-31.3s-30,24-30.2,31.3c-.7,20.2,11.3,42.7,30.2,44.3ZM412.5,338.8c-.6-5-4.9-8.8-9.9-8.8-5,0-9.3,3.8-9.9,8.8l-18.7,153.9c-.5,3.8,2.3,7.3,6.1,7.8,3.8.5,7.3-2.3,7.8-6.1l14.7-121,14.7,121c.4,3.6,3.5,6.2,6.9,6.2s.6,0,.9,0c3.8-.5,6.6-4,6.1-7.8l-18.7-153.9h0ZM504.1,189c0,33.8-2.1,73.5-3.5,89.8-.3,3.9-3.7,6.7-7.6,6.4-3.9-.3-6.7-3.7-6.4-7.6,1.4-16,3.5-55.1,3.5-88.5s-.3-20.4-1.1-34.6c-1.1-14.8-4.2-18-11.4-22.2-7.8-4.6-37.4-12.7-50.1-16.1-1.5-.4-2.8-.2-4.1.7-2.1,1.5-4.3,2.7-6.5,3.8l9.1,93.3c.2,1.8-.3,3.5-1.4,5l-19.2,24.9c-1.3,1.7-3.4,2.7-5.5,2.7s-4.2-1-5.5-2.7l-19.2-24.9c-1.1-1.4-1.6-3.2-1.4-5l9.1-93.3c-1.8-.9-3.7-1.9-5.4-3.1-1.3-.8-2.5-1-3.9-.6-6.7,1.8-13.1,3.4-14.5,3.8-25.8,6.6-46.9,5.9-64.7-2.2-15-6.8-27.8-18.9-40.4-38-4.8-6.9-10.7-9.4-15.5-6.6-3.7,2.2-6.2,7.7-2.7,14.4,15.9,29.9,39.8,61.1,95.8,64.4,9.6.6,17.1,8.5,17.1,18.1v99h107.8v-93.6c0-3.9,3.1-7,7-7s7,3.1,7,7v115.3l5.5,201.9c.1,3.9-2.9,7.1-6.8,7.2,0,0-.1,0-.2,0-3.8,0-6.9-3-7-6.8l-5.5-202c0,0,0-.1,0-.2v-7.9h-107.8v7.9c0,0,0,.1,0,.2l-5.5,202c-.1,3.8-3.2,6.8-7,6.8s-.1,0-.2,0c-3.9-.1-6.9-3.3-6.8-7.2l5.5-202v-120.7c0-2.2-1.7-4-3.9-4.1-63.2-3.8-90.5-40.4-107.3-71.9-7.3-14-1.4-27.4,7.9-32.9,9.5-5.7,23.8-4.6,34.3,10.7,0,0,0,0,0,.1,19.4,29.5,42.1,46.6,90,34.4,1.4-.4,7.8-2,14.4-3.8,5.3-1.4,10.5-.5,15.1,2.5,10,6.5,20.4,6.3,30.3-.5,4.7-3.2,10.3-4.2,15.7-2.7,26.4,7.2,45.6,13,53.4,17.6,12.3,7.2,16.9,15.6,18.2,33.3,0,0,0,.1,0,.2.8,14.5,1.2,25.4,1.2,35.5h0ZM412,212.4l-8.6-88.1c-2.2.2-4.4.2-6.6,0l-8.6,88.1,11.9,15.5,11.9-15.5h0ZM155.3,496.4c.2,2-.5,3.9-1.8,5.4-1.3,1.5-3.2,2.3-5.2,2.3H7c-2,0-3.8-.8-5.2-2.3-1.3-1.5-2-3.4-1.8-5.4,1.7-19.3,10.6-37.2,24.9-50.3,7.8-7.2,17-12.6,26.8-16.1-9.1-7.5-14.9-18.8-14.9-31.5,0-22.5,18.3-40.8,40.8-40.8s40.8,18.3,40.8,40.8-5.8,24-14.9,31.5c9.8,3.5,19,8.9,26.8,16.1,14.3,13.2,23.2,31,24.9,50.3h0ZM77.7,425.3c14.8,0,26.8-12,26.8-26.8s-12-26.8-26.8-26.8-26.8,12-26.8,26.8,12,26.8,26.8,26.8ZM140.2,490c-6.2-29.3-31.8-50.5-62.5-50.5s-56.4,21.2-62.5,50.5h125.1ZM318.8,496.4c.2,2-.5,3.9-1.8,5.4-1.3,1.5-3.2,2.3-5.2,2.3h-141.3c-2,0-3.8-.8-5.2-2.3-1.3-1.5-2-3.4-1.8-5.4,1.7-19.3,10.6-37.2,24.9-50.3,7.8-7.2,17-12.6,26.8-16.1-9.1-7.5-14.9-18.8-14.9-31.5,0-22.5,18.3-40.8,40.8-40.8s40.8,18.3,40.8,40.8-5.8,24-14.9,31.5c9.8,3.5,19,8.9,26.8,16.1,14.3,13.2,23.2,31,24.9,50.3h0ZM241.1,425.3c14.8,0,26.8-12,26.8-26.8s-12-26.8-26.8-26.8-26.8,12-26.8,26.8,12,26.8,26.8,26.8h0ZM303.7,490c-6.2-29.3-31.8-50.5-62.5-50.5s-56.4,21.2-62.5,50.5h125.1ZM218.2,133.9l-6.4,9.5,3.7,8.8,11.2,2.2c3.3.6,5.6,3.5,5.6,6.9v24.7c0,3.3-2.4,6.2-5.6,6.9l-11.2,2.2-3.7,8.8,6.4,9.5c1.9,2.8,1.5,6.5-.9,8.8l-17.4,17.4c-2.4,2.4-6.1,2.7-8.8.9l-9.5-6.4-8.8,3.7-2.2,11.2c-.6,3.3-3.5,5.6-6.9,5.6h-24.7c-3.3,0-6.2-2.4-6.9-5.6l-2.2-11.2-8.8-3.7-9.5,6.4c-2.8,1.9-6.5,1.5-8.8-.9l-17.4-17.4c-2.4-2.4-2.7-6.1-.9-8.8l6.4-9.5-3.7-8.8-11.2-2.2c-3.3-.6-5.6-3.5-5.6-6.9v-24.7c0-3.3,2.4-6.2,5.6-6.9l11.2-2.2,3.7-8.8-6.4-9.5c-1.9-2.8-1.5-6.5.9-8.8l17.4-17.4c2.4-2.4,6.1-2.7,8.8-.9l9.5,6.4,8.8-3.7,2.2-11.2c.6-3.3,3.5-5.6,6.9-5.6h24.7c3.3,0,6.2,2.4,6.9,5.6l2.2,11.2,8.8,3.7,9.5-6.4c2.8-1.9,6.5-1.5,8.8.9l17.4,17.4c2.4,2.4,2.7,6.1.9,8.8h0ZM209.1,165.3c-2.3-.5-4.2-2-5.1-4.2l-6.5-15.8c-.9-2.2-.7-4.6.7-6.6l5.3-7.8-9.3-9.3-7.8,5.3c-1.9,1.3-4.4,1.5-6.6.7l-15.8-6.5c-2.2-.9-3.7-2.8-4.2-5.1l-1.8-9.3h-13.2l-1.8,9.3c-.5,2.3-2,4.2-4.2,5.1l-15.8,6.5c-2.2.9-4.6.7-6.6-.7l-7.8-5.3-9.3,9.3,5.3,7.8c1.3,1.9,1.6,4.4.7,6.6l-6.5,15.8c-.9,2.2-2.8,3.7-5.1,4.2l-9.3,1.8v13.2l9.3,1.8c2.3.5,4.2,2,5.1,4.2l6.5,15.8c.9,2.2.7,4.6-.7,6.6l-5.3,7.8,9.3,9.3,7.8-5.3c1.9-1.3,4.4-1.5,6.6-.7l15.8,6.5c2.2.9,3.7,2.8,4.2,5.1l1.8,9.3h13.2l1.8-9.3c.5-2.3,2-4.2,4.2-5.1l15.8-6.5c2.2-.9,4.6-.7,6.6.7l7.8,5.3,9.3-9.3-5.3-7.8c-1.3-1.9-1.6-4.4-.7-6.6l6.5-15.8c.9-2.2,2.8-3.7,5.1-4.2l9.3-1.8v-13.2l-9.3-1.8h0ZM192.1,173.7c0,22.5-18.3,40.8-40.8,40.8s-40.8-18.3-40.8-40.8,18.3-40.8,40.8-40.8,40.8,18.3,40.8,40.8h0ZM178.1,173.7c0-14.8-12-26.8-26.8-26.8s-26.8,12-26.8,26.8,12,26.8,26.8,26.8,26.8-12,26.8-26.8ZM47.6,60.4h139.2c3.9,0,7-3.1,7-7s-3.1-7-7-7H47.6c-3.9,0-7,3.1-7,7s3.1,7,7,7ZM47.6,94h60.9c3.9,0,7-3.1,7-7s-3.1-7-7-7h-60.9c-3.9,0-7,3.1-7,7s3.1,7,7,7Z"/>
</svg>