<?xml version="1.0" encoding="UTF-8"?>
<svg id="icons" xmlns="http://www.w3.org/2000/svg" version="1.1" viewBox="0 0 58 58">
  <!-- Generator: Adobe Illustrator 29.2.1, SVG Export Plug-In . SVG Version: 2.1.0 Build 116)  -->
  <defs>
    <style>
      .st0 {
        fill: #fde05e;
      }

      .st1 {
        fill: #c7af3e;
      }

      .st2 {
        fill: #2d629b;
      }

      .st3 {
        fill: #255682;
      }

      .st4 {
        fill: #1b4768;
      }

      .st5 {
        fill: #bfdbf0;
      }

      .st6 {
        fill: #4b95ff;
      }

      .st7 {
        fill: #9ebbce;
      }

      .st8 {
        fill: #b0ccdd;
      }

      .st9 {
        fill: #9693eb;
      }

      .st10 {
        fill: #7c7ed0;
      }

      .st11 {
        fill: #3778c6;
      }
    </style>
  </defs>
  <path class="st2" d="M14.6,57.4l-13.1-7.6C.6,49.3,0,48.3,0,47.3V10.7c0-1.1.6-2.1,1.5-2.6L14.6.6v56.9Z"/>
  <polyline class="st8" points="38 48 38 36 31 36 31 48 38 48"/>
  <path class="st2" d="M31,5h25c1.1,0,2,.9,2,2v28c0,1.1-.9,2-2,2h-25V5h0Z"/>
  <path class="st11" d="M31,33V9h22c.6,0,1,.4,1,1v22c0,.6-.4,1-1,1h-22Z"/>
  <path class="st5" d="M31,47h16c.6,0,1,.4,1,1v2c0,.6-.4,1-1,1h-16v-4h0Z"/>
  <rect class="st3" x="14" y="0" width="18" height="58" rx="2" ry="2"/>
  <circle class="st0" cx="23" cy="10" r="5"/>
  <circle class="st0" cx="23" cy="24" r="5"/>
  <circle class="st0" cx="23" cy="38" r="5"/>
  <polygon class="st10" points="10 26 10 35 4 34 4 26 10 26"/>
  <polygon class="st9" points="10 17 10 26 4 26 4 18 10 17"/>
  <path class="st10" d="M10,9.9v7.1l-6,1v-6.1c0-.4.2-.7.6-.9l4-2c.5-.2,1.1,0,1.3.4,0,.1.1.3.1.4Z"/>
  <polygon class="st9" points="10 35 10 43.3 4 40.7 4 34 10 35"/>
  <path class="st11" d="M14.6,57.4h0s-13.1-7.5-13.1-7.5C.6,49.3,0,48.3,0,47.3v-8.3l14,6v11c0,.5.2,1,.6,1.4Z"/>
  <path class="st7" d="M32,41h2c.6,0,1,.4,1,1s-.4,1-1,1h-2v-2Z"/>
  <path class="st6" d="M50,16c-.3,0-.5-.1-.7-.3l-2-2c-.4-.4-.4-1,0-1.4.4-.4,1-.4,1.4,0l2,2c.4.4.4,1,0,1.4-.2.2-.4.3-.7.3Z"/>
  <path class="st6" d="M50,22c-.3,0-.5-.1-.7-.3l-8-8c-.4-.4-.4-1,0-1.4.4-.4,1-.4,1.4,0l8,8c.4.4.4,1,0,1.4-.2.2-.4.3-.7.3Z"/>
  <path class="st6" d="M50,28c-.3,0-.5-.1-.7-.3l-14-14c-.4-.4-.4-1,0-1.4.4-.4,1-.4,1.4,0l14,14c.4.4.4,1,0,1.4-.2.2-.4.3-.7.3Z"/>
  <path class="st6" d="M9,49c-.2,0-.3,0-.4,0l-4-2c-.5-.2-.7-.8-.4-1.3.2-.5.8-.7,1.3-.4l4,2c.5.3.7.9.4,1.3-.2.3-.5.5-.9.5Z"/>
  <path class="st1" d="M23,26c-.6,0-1-.4-1-1v-2c0-.6.4-1,1-1s1,.4,1,1v2c0,.6-.4,1-1,1Z"/>
  <path class="st1" d="M23,40c-.6,0-1-.4-1-1v-2c0-.6.4-1,1-1s1,.4,1,1v2c0,.6-.4,1-1,1Z"/>
  <path class="st1" d="M23,12c-.6,0-1-.4-1-1v-2c0-.6.4-1,1-1s1,.4,1,1v2c0,.6-.4,1-1,1Z"/>
  <path class="st4" d="M26,49h-6c-.6,0-1-.4-1-1s.4-1,1-1h6c.6,0,1,.4,1,1s-.4,1-1,1Z"/>
  <path class="st4" d="M25,53h-4c-.6,0-1-.4-1-1s.4-1,1-1h4c.6,0,1,.4,1,1s-.4,1-1,1Z"/>
</svg>