<?xml version="1.0" encoding="UTF-8"?>
<svg id="Layer_1" xmlns="http://www.w3.org/2000/svg" version="1.1" xmlns:xlink="http://www.w3.org/1999/xlink" viewBox="0 0 118.4 122.9">
  <!-- Generator: Adobe Illustrator 29.2.1, SVG Export Plug-In . SVG Version: 2.1.0 Build 116)  -->
  <defs>
    <style>
      .st0 {
        fill: #deeeff;
      }

      .st0, .st1, .st2, .st3, .st4, .st5, .st6, .st7, .st8, .st9, .st10, .st11, .st12 {
        fill-rule: evenodd;
      }

      .st1 {
        fill: #f4df6a;
      }

      .st2 {
        fill: #3c58a0;
      }

      .st3 {
        fill: #4de48f;
      }

      .st4 {
        fill: #588fdf;
      }

      .st5 {
        fill: #fff;
      }

      .st6 {
        fill: #67e8fc;
      }

      .st7 {
        fill: #6278b3;
      }

      .st8 {
        fill: #34495e;
      }

      .st9 {
        fill: #2a3b4d;
      }

      .st10 {
        fill: #fbbd45;
      }

      .st11 {
        fill: #b4c1cf;
      }

      .st12 {
        fill: #e55962;
      }
    </style>
  </defs>
  <g id="Layer_x5F_1">
    <g id="_655186512">
      <path class="st9" d="M79.8,114.5h-41c-.5,0-.9-.2-1.2-.6-.3-.4-.4-.9-.2-1.4l5.1-16.3c.2-.6.7-1,1.4-1h30.8c.6,0,1.2.4,1.4,1l5.1,16.3c0,.4,0,.9-.2,1.4-.4.4-.8.6-1.2.6Z"/>
      <path class="st8" d="M113.9,98.3H4.6c-2.5,0-4.6-2-4.6-4.6V16.6c0-2.5,2.1-4.6,4.6-4.6h109.2c2.5,0,4.5,2.1,4.5,4.6v77.1c.1,2.7-1.9,4.6-4.5,4.6Z"/>
      <path class="st6" d="M110.7,86.7H7.8c-.9,0-1.4-.6-1.4-1.4V19.7c0-.8.6-1.4,1.4-1.4h102.9c.9,0,1.4.6,1.4,1.4v65.5c0,.8-.6,1.4-1.4,1.4Z"/>
      <path class="st8" d="M88.9,123.1H29.4c-1.7,0-3.2-1.4-3.2-3.2v-5.1c0-1.7,1.4-3.2,3.2-3.2h59.6c1.7,0,3.2,1.4,3.2,3.2v5.1c0,1.7-1.6,3.2-3.4,3.2Z"/>
      <path class="st9" d="M61.4,93.9h-4.3c-.9,0-1.4-.6-1.4-1.4s.6-1.4,1.4-1.4h4.3c.9,0,1.4.6,1.4,1.4s-.6,1.4-1.4,1.4Z"/>
    </g>
    <g id="_655184808">
      <path class="st0" d="M87.5,79.2H31c-4.6,0-8.4-3.7-8.4-8.4V8.6C22.6,4,26.3.2,31,.2h56.5c4.5,0,8.4,3.7,8.4,8.4v62.3c0,4.6-3.8,8.4-8.4,8.4Z"/>
      <path class="st11" d="M52.3,79.2h-6.6V16.2c0-.6.4-.9.9-.9h4.8c.5,0,.9.4.9.9v63Z"/>
      <path class="st11" d="M52.3,20.1h-6.6v-3.9c0-.6.4-.9.9-.9h4.8c.5,0,.9.4.9.9v3.9Z"/>
      <path class="st4" d="M39.7,33h-9.8c-1,0-1.7-.8-1.7-1.7v-6.1c0-.9.7-1.7,1.7-1.7h9.8c1,0,1.7.6,1.7,1.7v6.1c0,.9-.7,1.7-1.7,1.7ZM39.7,46.6h-9.8c-1,0-1.7-.8-1.7-1.7v-6.2c0-.9.7-1.7,1.7-1.7h9.8c1,0,1.7.7,1.7,1.7v6.2c0,.9-.7,1.7-1.7,1.7ZM39.7,60.3h-9.8c-1,0-1.7-.8-1.7-1.7v-6.2c0-.9.7-1.7,1.7-1.7h9.8c1,0,1.7.7,1.7,1.7v6.2c0,.9-.7,1.7-1.7,1.7ZM39.7,73.9h-9.8c-1,0-1.7-.7-1.7-1.7v-6.2c0-.9.7-1.7,1.7-1.7h9.8c1,0,1.7.7,1.7,1.7v6.2c0,.9-.7,1.7-1.7,1.7Z"/>
      <path class="st2" d="M94.8,20.1H23.5c-.5,0-.9-.4-.9-.9v-10.7C22.6,4,26.3.2,31,.2h56.5c4.5,0,8.4,3.7,8.4,8.4v10.7c0,.4-.5.9-1,.9Z"/>
      <path class="st7" d="M86.7,13.7h-18c-1.9,0-3.5-1.6-3.5-3.5s1.6-3.6,3.5-3.6h18c2,0,3.6,1.6,3.6,3.6s-1.6,3.5-3.6,3.5Z"/>
      <path class="st3" d="M55.6,14.9c-2.7,0-4.8-2.2-4.8-4.7s2.1-4.8,4.8-4.8,4.7,2.1,4.7,4.8-2.1,4.7-4.7,4.7Z"/>
      <path class="st1" d="M44.3,14.9c-2.7,0-4.8-2.2-4.8-4.7s2.1-4.8,4.8-4.8,4.7,2.1,4.7,4.8-2.2,4.7-4.7,4.7Z"/>
      <path class="st12" d="M32.8,14.9c-2.6,0-4.7-2.2-4.7-4.7s2.1-4.8,4.7-4.8,4.8,2.1,4.8,4.8c0,2.5-2.2,4.7-4.8,4.7Z"/>
    </g>
    <g id="_655183296">
      <path class="st10" d="M72.7,57.2c-9.3,0-16.9-7.6-16.9-17.1s7.6-17,16.9-17,17.1,7.6,17.1,17-7.6,17.1-17.1,17.1Z"/>
      <path class="st11" d="M88,62.7h-30.7c-.8,0-1.4-.6-1.4-1.4s.6-1.4,1.4-1.4h30.7c.8,0,1.4.6,1.4,1.4s-.6,1.4-1.4,1.4Z"/>
      <path class="st11" d="M88,68.5h-30.7c-.8,0-1.4-.6-1.4-1.4s.6-1.4,1.4-1.4h30.7c.8,0,1.4.6,1.4,1.4s-.6,1.4-1.4,1.4Z"/>
      <path class="st11" d="M88,74.4h-30.7c-.8,0-1.4-.6-1.4-1.4s.6-1.4,1.4-1.4h30.7c.8,0,1.4.6,1.4,1.4s-.6,1.4-1.4,1.4Z"/>
      <g>
        <path class="st5" d="M75.5,46.9c-.5,0-1-.3-1.3-.8l-5.4-10.5c-.4-.7,0-1.6.6-1.9.7-.4,1.7-.1,1.9.6l5.4,10.5c.4.7,0,1.6-.6,1.9-.2,0-.4.1-.6.1Z"/>
        <path class="st5" d="M65.8,45.6c-.4,0-.7,0-1-.4l-4-4c-.6-.6-.6-1.5,0-2l4-4c.6-.6,1.5-.6,2,0,.6.6.6,1.4,0,1.9l-2.9,3,2.9,2.9c.6.6.6,1.5,0,2-.2.4-.6.6-1,.6Z"/>
        <path class="st5" d="M79.6,45.6c-.4,0-.6,0-1-.4-.6-.6-.6-1.5,0-2l3-2.9-3-3c-.6-.6-.6-1.5,0-2,.6-.6,1.5-.6,2,0l4,4c.3.3.4.6.4,1s-.2.7-.4,1l-4,4c-.3,0-.6.1-1,.1Z"/>
      </g>
    </g>
  </g>
</svg>