<?xml version="1.0" encoding="UTF-8"?>
<svg id="Layer_1" xmlns="http://www.w3.org/2000/svg" version="1.1" viewBox="0 0 480 439.4">
  <!-- Generator: Adobe Illustrator 29.2.1, SVG Export Plug-In . SVG Version: 2.1.0 Build 116)  -->
  <defs>
    <style>
      .st0 {
        fill: #96ff96;
      }

      .st0, .st1, .st2, .st3, .st4, .st5, .st6 {
        fill-rule: evenodd;
      }

      .st1 {
        fill: #ffe177;
      }

      .st2 {
        fill: #f6dccd;
      }

      .st3 {
        fill: #eceff1;
      }

      .st4 {
        fill: #8ac9fe;
      }

      .st5 {
        fill: #d1d1d6;
      }

      .st6 {
        fill: #fb545c;
      }
    </style>
  </defs>
  <path class="st6" d="M308.3,307.5l-16.3-63.9-36.2,9.3c-17.7,4.5-28.3,22.5-23.8,40.1,4.5,17.5,22.1,28.1,39.6,23.9.2,0,.4,0,.5-.1l26.9-6.9,9.4-2.4Z"/>
  <path class="st3" d="M249.1,282.5c-2.5.6-5-.9-5.6-3.4-.6-2.5.9-5,3.4-5.6l36.2-9.3c2.5-.6,5,.9,5.6,3.4.6,2.5-.9,5-3.4,5.6l-36.2,9.3Z"/>
  <path class="st3" d="M253.8,300.9c-2.5.6-5-.9-5.6-3.4-.6-2.5.9-5,3.4-5.6l22.2-5.7c2.5-.6,5,.9,5.6,3.4.6,2.5-.9,5-3.4,5.6h0l-22.2,5.7Z"/>
  <path class="st2" d="M274,324.7c-11.7,5.3-24.1,18.2-35.1,35.5,1,1,1.8,2.3,2.3,3.6l21,56.3c.7,1.8.8,3.7.5,5.5,13.5.2,37.9-6.5,67.3-19.6,12.2-7.4,15.3-15.6,9.2-24.7,4.3-5.6,3.7-12.4-2-20.5,3.9-5.2,2.5-11.5-4.3-19,3.6-11.9-2.9-20.3-15.2-14.1l-9.2,4.6,1.4,3.2-26.7,10.4-8.5-21.6c-.3.1-.5.2-.6.2Z"/>
  <path class="st5" d="M274.6,324.5l8.5,21.6,26.7-10.4-1.4-3.2-9.5-22.5-26.9,6.9c-.2,0-.4,0-.5.1l3,7.6Z"/>
  <path class="st4" d="M262.1,420.1l-21-56.3c-.5-1.3-1.3-2.6-2.3-3.6-3-3.1-7.5-4.2-11.5-2.7l-15,5.6,28.5,76.3,15-5.6c3.6-1.3,6.2-4.5,6.8-8.2.3-1.9.1-3.8-.5-5.5Z"/>
  <path class="st6" d="M391.9,146.1l44.5,174c.3,1.4.8,2.7,1.5,3.9,4.9,9.8,16.7,13.8,26.5,8.9,8.4-4.2,12.7-13.6,10.4-22.6l-11.5-44.9-20.6-80.6-12.4-48.5c-2.6-10.6-13.4-17.1-24-14.4-10.6,2.6-17.1,13.4-14.4,24,0,0,0,.2,0,.2h0Z"/>
  <polygon class="st5" points="442.7 184.8 463.3 265.5 480 239.2 469.1 196.6 442.7 184.8"/>
  <path class="st5" d="M436.4,320.1l-44.5-174-99.9,97.4,16.3,63.9,129.5,16.6c-.6-1.2-1.1-2.6-1.5-3.9Z"/>
  <path class="st1" d="M0,59h378.1V13.2c0-7.3-5.9-13.2-13.2-13.2H13.2C5.9,0,0,5.9,0,13.2v45.8Z"/>
  <path class="st6" d="M21.1,29.2c0-3.9,3.1-7,7-7s7,3.1,7,7v.8c0,3.9-3.1,7-7,7s-7-3.1-7-7v-.8Z"/>
  <path class="st4" d="M48.6,29.2c0-3.9,3.1-7,7-7s7,3.1,7,7v.8c0,3.9-3.1,7-7,7s-7-3.1-7-7v-.8Z"/>
  <path class="st0" d="M76.1,29.2c0-3.9,3.1-7,7-7s7,3.1,7,7v.8c0,3.9-3.1,7-7,7s-7-3.1-7-7v-.8Z"/>
  <path class="st3" d="M181.8,176c-2.8,42-39.1,73.7-81,70.9-42-2.8-73.7-39.1-70.9-81,2.8-42,39.1-73.7,81-70.9,18.4,1.2,35.8,9.1,48.8,22.1,15.6,15.5,23.6,37,22.1,58.9ZM378.1,59H0v215.4c0,7.3,5.9,13.2,13.2,13.2h217.9c-1.3-16,9.1-30.7,24.7-34.8l36.2-9.3,1.7-1.6,10.9-10.6,37.4-36.5,36.2-35.3V59Z"/>
  <path class="st5" d="M206.1,128.9c-3.9,0-7-3.1-7-7s3.1-7,7-7h135.9c3.9,0,7,3.1,7,7s-3.1,7-7,7h-135.9Z"/>
  <path class="st5" d="M206.1,165.4c-3.9,0-7-3.1-7-7s3.1-7,7-7h135.9c3.9,0,7,3.1,7,7s-3.1,7-7,7h-135.9Z"/>
  <path class="st5" d="M206.1,201.9c-3.9,0-7-3.1-7-7s3.1-7,7-7h143.1l-14.4,14h-128.7Z"/>
  <path class="st5" d="M206.1,238.3c-3.9,0-7-3.1-7-7s3.1-7,7-7h105.6l-14.4,14h-91.3Z"/>
  <path class="st0" d="M51.9,224.8c29.7,29.7,77.9,29.7,107.7,0,13.3-13.3,21.2-30.9,22.2-49.6l-43.5-33.3-33.2,40.5-20.3-20.6-53.5,24.7c3,14.5,10.2,27.8,20.7,38.2Z"/>
  <path class="st4" d="M31.2,186.5l53.5-24.7,20.3,20.6,33.2-40.5,43.5,33.3c2.3-42-29.8-77.9-71.8-80.2-42-2.3-77.9,29.8-80.2,71.8-.4,6.6.1,13.3,1.5,19.8h0ZM102.4,144.5c-8.4,0-15.3-6.8-15.3-15.3,0-8.4,6.8-15.3,15.3-15.3s15.3,6.8,15.3,15.3c0,8.4-6.8,15.3-15.3,15.3h0Z"/>
  <path class="st1" d="M87.1,129.2c0,8.4,6.8,15.3,15.3,15.3s15.3-6.8,15.3-15.3-6.8-15.3-15.3-15.3c-8.4,0-15.3,6.8-15.3,15.3h0Z"/>
</svg>