<?xml version="1.0" encoding="UTF-8"?>
<svg id="Layer_1" data-name="Layer 1" xmlns="http://www.w3.org/2000/svg" viewBox="0 0 259.42 260.49">
  <defs>
    <style>
      .cls-1 {
        fill: #203a72;
      }

      .cls-2 {
        fill: #14a0de;
      }
    </style>
  </defs>
  <path class="cls-2" d="M2.25,88.18c0,3.28,2.7,5.94,5.98,5.94h21.05v-11.92H8.23c-3.28,0-5.98,2.66-5.98,5.98Z"/>
  <path class="cls-2" d="M2.25,171.01c0,3.32,2.7,5.98,5.98,5.98h21.05v-11.97H8.23c-3.28,0-5.98,2.71-5.98,5.98Z"/>
  <path class="cls-2" d="M2.25,129.57c0,3.32,2.7,5.98,5.98,5.98h21.05v-11.92H8.23c-3.28,0-5.98,2.66-5.98,5.94Z"/>
  <path class="cls-2" d="M176.34,8.89c0-3.28-2.66-5.98-5.98-5.98s-5.98,2.7-5.98,5.98v21.05h11.97V8.89Z"/>
  <path class="cls-2" d="M255.59,88.18c0-3.32-2.66-5.98-5.98-5.98h-21.01v11.92h21.01c3.32,0,5.98-2.66,5.98-5.94Z"/>
  <path class="cls-2" d="M93.46,8.89c0-3.28-2.66-5.98-5.98-5.98s-5.98,2.7-5.98,5.98v21.05h11.97V8.89Z"/>
  <path class="cls-2" d="M134.9,8.89c0-3.28-2.66-5.98-5.98-5.98s-5.98,2.7-5.98,5.98v21.05h11.97V8.89Z"/>
  <path class="cls-2" d="M122.94,250.31c0,3.28,2.7,5.94,5.98,5.94s5.98-2.66,5.98-5.94v-21.05h-11.97v21.05Z"/>
  <path class="cls-2" d="M249.61,165.03h-21.01v11.97h21.01c3.32,0,5.98-2.66,5.98-5.98s-2.66-5.98-5.98-5.98Z"/>
  <path class="cls-2" d="M81.5,250.31c0,3.28,2.7,5.94,5.98,5.94s5.98-2.66,5.98-5.94v-21.05h-11.97v21.05Z"/>
  <path class="cls-2" d="M249.61,123.64h-21.01v11.92h21.01c3.32,0,5.98-2.66,5.98-5.98s-2.66-5.94-5.98-5.94Z"/>
  <path class="cls-2" d="M164.38,250.31c0,3.28,2.7,5.94,5.98,5.94s5.98-2.66,5.98-5.94v-21.05h-11.97v21.05Z"/>
  <path class="cls-1" d="M179.45,100.81c-2.19,5.86-6.78,12.14-16.21,15.83-.47.18-.96.27-1.44.27-1.58,0-3.08-.95-3.69-2.52-.8-2.03.21-4.33,2.24-5.12,7.07-2.77,11.3-7.75,12.64-14.77-.58-9.69-8.27-17.47-17.55-17.47-.52.08-.81.11-1.1.14-1.59.11-3.12-.76-3.83-2.2-2.34-4.76-6.89-7.72-11.88-7.72-2,0-3.96.47-5.74,1.36v122.23c9.16,3.57,19.02-2.16,22-11.33.22-1.19.43-2.4.56-3.68.25-2.34-1.37-3.51-2.08-3.9-1.23-.68-3.12-.95-4.78.34l-2.16,1.68c-1.73,1.34-4.21,1.03-5.55-.7-1.34-1.72-1.03-4.21.69-5.55l2.16-1.68c3.88-3.01,9.17-3.41,13.49-1,3.1,1.72,5.14,4.56,5.85,7.82,6.82-3.48,11.49-10.65,11.88-18.78-1.22-6.57-5.09-10.74-11.58-12.38-2.12-.53-3.41-2.68-2.87-4.8.53-2.12,2.69-3.41,4.8-2.87,6.93,1.74,12.07,5.76,15.05,11.53,1.96-2.64,3.15-5.85,3.15-9.3,0-3.16-.93-6.21-2.7-8.83-1.05-1.55-.87-3.63.44-4.97,2.6-2.68,4.04-6.26,4.04-10.08,0-4.73-2.24-8.97-5.82-11.53ZM142.93,103.34c2.24-1.84,4.87-4.61,4.67-7.42-.22-3.03-3.55-5.69-4.82-6.46-1.86-1.13-2.47-3.55-1.35-5.42,1.12-1.87,3.52-2.48,5.4-1.38.83.49,8.08,4.99,8.66,12.63.38,4.99-2.16,9.76-7.54,14.17-.74.6-1.62.9-2.5.9-1.15,0-2.28-.49-3.06-1.45-1.38-1.69-1.14-4.18.55-5.57ZM155.04,152.92c-.77.74-1.76,1.11-2.75,1.11s-2.05-.4-2.83-1.19c-4.84-4.98-11.94-17.91-4.19-31.14,1.11-1.88,3.53-2.51,5.42-1.41,1.88,1.11,2.52,3.53,1.41,5.42-6.62,11.29,2.65,21.22,3.05,21.63,1.5,1.58,1.46,4.08-.11,5.59Z"/>
  <path class="cls-1" d="M107.35,74.97c-.71,1.45-2.23,2.32-3.83,2.2-.29-.02-.57-.06-.86-.1h-.07c-9.48,0-17.14,7.76-17.72,17.43,1.34,7.02,5.56,12,12.64,14.77,2.03.79,3.04,3.09,2.24,5.12-.61,1.56-2.1,2.52-3.69,2.52-.48,0-.97-.09-1.44-.27-9.44-3.69-14.02-9.97-16.21-15.83-3.58,2.56-5.82,6.81-5.82,11.53,0,3.82,1.43,7.4,4.04,10.08,1.31,1.34,1.49,3.42.44,4.97-1.77,2.61-2.7,5.67-2.7,8.83,0,3.45,1.19,6.66,3.15,9.3,2.98-5.77,8.11-9.79,15.04-11.53,2.12-.53,4.27.75,4.8,2.87.53,2.12-.75,4.27-2.87,4.8-6.51,1.64-10.41,5.84-11.6,12.46.34,7.99,5.04,15.2,11.9,18.7.71-3.26,2.75-6.1,5.85-7.82,4.32-2.4,9.61-2.01,13.49,1.01l2.16,1.68c1.72,1.34,2.03,3.82.69,5.55-1.34,1.73-3.83,2.03-5.55.7l-2.16-1.68c-1.65-1.28-3.55-1.01-4.78-.34-.71.39-2.33,1.56-2.08,3.9.14,1.28.35,2.49.56,3.68,2.97,9.18,12.84,14.91,22,11.33v-122.23c-1.78-.89-3.74-1.36-5.74-1.36-4.99,0-9.54,2.96-11.88,7.72ZM108.39,152.83c-.78.8-1.81,1.2-2.84,1.2s-1.99-.37-2.76-1.12c-1.56-1.52-1.6-4.01-.09-5.58.4-.42,9.67-10.34,3.05-21.63-1.1-1.89-.47-4.31,1.41-5.42,1.89-1.1,4.31-.47,5.42,1.41,7.76,13.23.65,26.15-4.19,31.14ZM114.93,103.34c1.69,1.39,1.94,3.88.55,5.57-.78.95-1.92,1.45-3.06,1.45-.88,0-1.77-.29-2.5-.9-5.38-4.41-7.92-9.18-7.54-14.17.58-7.64,7.83-12.15,8.66-12.63,1.88-1.11,4.31-.49,5.42,1.39,1.11,1.87.5,4.29-1.37,5.41-1.27.77-4.6,3.43-4.82,6.46-.2,2.81,2.43,5.59,4.67,7.42Z"/>
  <path class="cls-1" d="M193.05,39.69H64.81c-14.24,0-25.78,11.54-25.78,25.78v128.24c0,14.24,11.54,25.78,25.78,25.78h128.24c14.24,0,25.78-11.54,25.78-25.78V65.47c0-14.24-11.54-25.78-25.78-25.78ZM188.89,125.59c1.65,3.29,2.52,6.91,2.52,10.63,0,7.12-3.14,13.74-8.48,18.13-.57,12.54-8.81,23.53-20.3,27.27-3.27,10.7-13.01,18.23-24,18.23-3.31,0-6.55-.75-9.7-2.15-3.14,1.4-6.39,2.15-9.7,2.15-10.99,0-20.72-7.54-24-18.23-11.49-3.74-19.72-14.73-20.3-27.27-5.35-4.39-8.48-11.02-8.48-18.13,0-3.72.86-7.35,2.52-10.63-2.79-3.8-4.29-8.4-4.29-13.25,0-8.67,4.88-16.36,12.38-19.9,1.52-12.8,11.95-22.87,24.51-23.31,3.95-6.11,10.5-9.81,17.66-9.81,3.41,0,6.7.86,9.7,2.45,2.99-1.59,6.29-2.45,9.7-2.45,7.16,0,13.72,3.7,17.66,9.81,12.56.44,23,10.51,24.51,23.31,7.5,3.54,12.38,11.23,12.38,19.9,0,4.85-1.51,9.45-4.29,13.25Z"/>
</svg>